<?xml version="1.0" encoding="UTF-8" standalone="no"?>
<!DOCTYPE svg PUBLIC "-//W3C//DTD SVG 1.1//EN"
 "http://www.w3.org/Graphics/SVG/1.1/DTD/svg11.dtd">
<!-- Generated by graphviz version 2.43.0 (0)
 -->
<!-- Title: module hierarchy of top_module Pages: 1 -->
<svg width="289pt" height="86pt"
 viewBox="0.00 0.00 289.00 86.00" xmlns="http://www.w3.org/2000/svg" xmlns:xlink="http://www.w3.org/1999/xlink">
<g id="graph0" class="graph" transform="scale(1 1) rotate(0) translate(4 82)">
<title>module hierarchy of top_module</title>
<polygon fill="white" stroke="transparent" points="-4,4 -4,-82 285,-82 285,4 -4,4"/>
<text text-anchor="middle" x="140.5" y="-61.2" font-family="Helvetica,sans-Serif" font-size="16.00">module hierarchy of top_module</text>
<!-- m1 -->
<g id="node1" class="node">
<title>m1</title>
<path fill="#c5dcef" stroke="#4a6d8c" stroke-width="2" d="M165.5,-52C165.5,-52 115.5,-52 115.5,-52 109.5,-52 103.5,-46 103.5,-40 103.5,-40 103.5,-12 103.5,-12 103.5,-6 109.5,0 115.5,0 115.5,0 165.5,0 165.5,0 171.5,0 177.5,-6 177.5,-12 177.5,-12 177.5,-40 177.5,-40 177.5,-46 171.5,-52 165.5,-52"/>
<text text-anchor="middle" x="140.5" y="-40" font-family="Helvetica,sans-Serif" font-size="10.00">top_module</text>
<text text-anchor="middle" x="140.5" y="-29" font-family="Helvetica,sans-Serif" font-size="10.00">&lt;top&gt;</text>
<text text-anchor="middle" x="140.5" y="-18" font-family="Helvetica,sans-Serif" font-size="10.00">id 1</text>
<text text-anchor="middle" x="140.5" y="-7" font-family="Helvetica,sans-Serif" font-size="10.00">24 gates</text>
</g>
</g>
</svg>
