<?xml version="1.0" encoding="UTF-8" standalone="no"?>
<!DOCTYPE svg PUBLIC "-//W3C//DTD SVG 1.1//EN"
 "http://www.w3.org/Graphics/SVG/1.1/DTD/svg11.dtd">
<!-- Generated by graphviz version 2.43.0 (0)
 -->
<!-- Title: trivium_stream &#45; gate &#39;t3&#39; (id 604), depth 1, both &#45; 8 gates Pages: 1 -->
<svg width="994pt" height="1418pt"
 viewBox="0.00 0.00 993.55 1418.08" xmlns="http://www.w3.org/2000/svg" xmlns:xlink="http://www.w3.org/1999/xlink">
<g id="graph0" class="graph" transform="scale(1 1) rotate(0) translate(4 1414.08)">
<title>trivium_stream &#45; gate &#39;t3&#39; (id 604), depth 1, both &#45; 8 gates</title>
<polygon fill="white" stroke="transparent" points="-4,4 -4,-1414.08 989.55,-1414.08 989.55,4 -4,4"/>
<text text-anchor="middle" x="492.78" y="-1393.28" font-family="Helvetica,sans-Serif" font-size="16.00">trivium_stream &#45; gate &#39;t3&#39; (id 604), depth 1, both &#45; 8 gates</text>
<g id="clust1" class="cluster">
<title>cluster_legend</title>
<path fill="#fcfcfc" stroke="#bbbbbb" d="M56.91,-1044.08C56.91,-1044.08 349.98,-1044.08 349.98,-1044.08 355.98,-1044.08 361.98,-1050.08 361.98,-1056.08 361.98,-1056.08 361.98,-1364.08 361.98,-1364.08 361.98,-1370.08 355.98,-1376.08 349.98,-1376.08 349.98,-1376.08 56.91,-1376.08 56.91,-1376.08 50.91,-1376.08 44.91,-1370.08 44.91,-1364.08 44.91,-1364.08 44.91,-1056.08 44.91,-1056.08 44.91,-1050.08 50.91,-1044.08 56.91,-1044.08"/>
<text text-anchor="middle" x="203.44" y="-1363.28" font-family="Helvetica,sans-Serif" font-size="11.00">legend</text>
</g>
<!-- g604 -->
<g id="node1" class="node">
<title>g604</title>
<path fill="#f4f4f4" stroke="#555555" d="M566.82,-492.58C566.82,-492.58 477.82,-492.58 477.82,-492.58 471.82,-492.58 465.82,-486.58 465.82,-480.58 465.82,-480.58 465.82,-463.58 465.82,-463.58 465.82,-457.58 471.82,-451.58 477.82,-451.58 477.82,-451.58 566.82,-451.58 566.82,-451.58 572.82,-451.58 578.82,-457.58 578.82,-463.58 578.82,-463.58 578.82,-480.58 578.82,-480.58 578.82,-486.58 572.82,-492.58 566.82,-492.58"/>
<text text-anchor="middle" x="522.32" y="-480.58" font-family="Helvetica,sans-Serif" font-size="10.00">t3</text>
<text text-anchor="middle" x="522.32" y="-469.58" font-family="Helvetica,sans-Serif" font-size="10.00">[tennm_lcell_comb]</text>
<text text-anchor="middle" x="522.32" y="-458.58" font-family="Helvetica,sans-Serif" font-size="10.00">id 604</text>
</g>
<!-- g600 -->
<g id="node2" class="node">
<title>g600</title>
<polygon fill="#d6ecff" stroke="#2a5d8f" points="862.78,-385.13 862.78,-411.03 812.12,-429.34 740.49,-429.34 689.83,-411.03 689.83,-385.13 740.49,-366.82 812.12,-366.82 862.78,-385.13"/>
<text text-anchor="middle" x="776.3" y="-406.58" font-family="Helvetica,sans-Serif" font-size="10.00">i611~282</text>
<text text-anchor="middle" x="776.3" y="-395.58" font-family="Helvetica,sans-Serif" font-size="10.00">[tennm_lcell_comb]</text>
<text text-anchor="middle" x="776.3" y="-384.58" font-family="Helvetica,sans-Serif" font-size="10.00">id 600</text>
</g>
<!-- g604&#45;&gt;g600 -->
<g id="edge2" class="edge">
<title>g604&#45;&gt;g600</title>
<path fill="none" stroke="#777777" d="M578.93,-455.75C614.07,-445.43 659.96,-431.95 698.55,-420.62"/>
<polygon fill="#777777" stroke="#777777" points="699.58,-423.97 708.19,-417.79 697.61,-417.25 699.58,-423.97"/>
<text text-anchor="middle" x="634.32" y="-462.68" font-family="Helvetica,sans-Serif" font-size="8.00">t3~combout</text>
<text text-anchor="middle" x="634.32" y="-453.68" font-family="Helvetica,sans-Serif" font-size="8.00">combout &#45;&gt; datad</text>
</g>
<!-- out_1 -->
<g id="node9" class="node">
<title>out_1</title>
<ellipse fill="#bbbbbb" stroke="#bbbbbb" cx="982.67" cy="-398.08" rx="2.88" ry="2.88"/>
</g>
<!-- g600&#45;&gt;out_1 -->
<g id="edge3" class="edge">
<title>g600&#45;&gt;out_1</title>
<path fill="none" stroke="#bbbbbb" stroke-dasharray="5,2" d="M862.79,-398.08C903.7,-398.08 948.29,-398.08 969.34,-398.08"/>
<polygon fill="#bbbbbb" stroke="#bbbbbb" points="969.51,-401.58 979.51,-398.08 969.51,-394.58 969.51,-401.58"/>
<text text-anchor="middle" x="921.29" y="-400.68" font-family="Helvetica,sans-Serif" font-size="8.00">i611~282_combout</text>
</g>
<!-- g300 -->
<g id="node3" class="node">
<title>g300</title>
<polygon fill="#dbe9f6" stroke="#2a5d8f" stroke-width="2" points="385.82,-590.58 317.82,-590.58 317.82,-549.58 385.82,-549.58 385.82,-590.58"/>
<text text-anchor="middle" x="351.82" y="-578.58" font-family="Helvetica,sans-Serif" font-size="10.00">s[68]</text>
<text text-anchor="middle" x="351.82" y="-567.58" font-family="Helvetica,sans-Serif" font-size="10.00">[tennm_ff]</text>
<text text-anchor="middle" x="351.82" y="-556.58" font-family="Helvetica,sans-Serif" font-size="10.00">id 300</text>
</g>
<!-- g300&#45;&gt;g604 -->
<g id="edge4" class="edge">
<title>g300&#45;&gt;g604</title>
<path fill="none" stroke="#777777" d="M386.11,-550.72C412.16,-535.57 448.62,-514.36 477.12,-497.79"/>
<polygon fill="#777777" stroke="#777777" points="479.18,-500.64 486.06,-492.59 475.66,-494.59 479.18,-500.64"/>
<text text-anchor="middle" x="425.82" y="-550.68" font-family="Helvetica,sans-Serif" font-size="8.00">s(68)</text>
<text text-anchor="middle" x="425.82" y="-541.68" font-family="Helvetica,sans-Serif" font-size="8.00">q &#45;&gt; datae</text>
</g>
<!-- g34 -->
<g id="node4" class="node">
<title>g34</title>
<polygon fill="#dbe9f6" stroke="#2a5d8f" stroke-width="2" points="385.82,-321.58 317.82,-321.58 317.82,-280.58 385.82,-280.58 385.82,-321.58"/>
<text text-anchor="middle" x="351.82" y="-309.58" font-family="Helvetica,sans-Serif" font-size="10.00">s[285]</text>
<text text-anchor="middle" x="351.82" y="-298.58" font-family="Helvetica,sans-Serif" font-size="10.00">[tennm_ff]</text>
<text text-anchor="middle" x="351.82" y="-287.58" font-family="Helvetica,sans-Serif" font-size="10.00">id 34</text>
</g>
<!-- g34&#45;&gt;g604 -->
<g id="edge5" class="edge">
<title>g34&#45;&gt;g604</title>
<path fill="none" stroke="#777777" d="M357.15,-321.61C363.45,-346.95 377.38,-390.01 403.82,-417.08 406.38,-419.71 436.82,-433.93 466.07,-447.25"/>
<polygon fill="#777777" stroke="#777777" points="464.93,-450.58 475.48,-451.53 467.83,-444.2 464.93,-450.58"/>
<text text-anchor="middle" x="425.82" y="-450.68" font-family="Helvetica,sans-Serif" font-size="8.00">s(285)</text>
<text text-anchor="middle" x="425.82" y="-441.68" font-family="Helvetica,sans-Serif" font-size="8.00">q &#45;&gt; datad</text>
</g>
<!-- g20 -->
<g id="node5" class="node">
<title>g20</title>
<polygon fill="#dbe9f6" stroke="#2a5d8f" stroke-width="2" points="385.82,-120.58 317.82,-120.58 317.82,-79.58 385.82,-79.58 385.82,-120.58"/>
<text text-anchor="middle" x="351.82" y="-108.58" font-family="Helvetica,sans-Serif" font-size="10.00">s[286]</text>
<text text-anchor="middle" x="351.82" y="-97.58" font-family="Helvetica,sans-Serif" font-size="10.00">[tennm_ff]</text>
<text text-anchor="middle" x="351.82" y="-86.58" font-family="Helvetica,sans-Serif" font-size="10.00">id 20</text>
</g>
<!-- g20&#45;&gt;g604 -->
<g id="edge6" class="edge">
<title>g20&#45;&gt;g604</title>
<path fill="none" stroke="#777777" d="M359.99,-120.86C376.49,-167.85 419.28,-285.49 465.82,-379.08 476.73,-401.02 490.91,-424.71 502.2,-442.7"/>
<polygon fill="#777777" stroke="#777777" points="499.5,-444.97 507.82,-451.54 505.41,-441.22 499.5,-444.97"/>
<text text-anchor="middle" x="425.82" y="-346.68" font-family="Helvetica,sans-Serif" font-size="8.00">s(286)</text>
<text text-anchor="middle" x="425.82" y="-337.68" font-family="Helvetica,sans-Serif" font-size="8.00">q &#45;&gt; datac</text>
</g>
<!-- g6 -->
<g id="node6" class="node">
<title>g6</title>
<polygon fill="#dbe9f6" stroke="#2a5d8f" stroke-width="2" points="385.82,-951.58 317.82,-951.58 317.82,-910.58 385.82,-910.58 385.82,-951.58"/>
<text text-anchor="middle" x="351.82" y="-939.58" font-family="Helvetica,sans-Serif" font-size="10.00">s[287]</text>
<text text-anchor="middle" x="351.82" y="-928.58" font-family="Helvetica,sans-Serif" font-size="10.00">[tennm_ff]</text>
<text text-anchor="middle" x="351.82" y="-917.58" font-family="Helvetica,sans-Serif" font-size="10.00">id 6</text>
</g>
<!-- g6&#45;&gt;g604 -->
<g id="edge7" class="edge">
<title>g6&#45;&gt;g604</title>
<path fill="none" stroke="#777777" d="M361.83,-910.3C379.31,-869.68 418.67,-776.76 447.82,-697.08 473.04,-628.13 498.86,-545.82 512.16,-502.39"/>
<polygon fill="#777777" stroke="#777777" points="515.54,-503.31 515.11,-492.72 508.84,-501.27 515.54,-503.31"/>
<text text-anchor="middle" x="425.82" y="-818.68" font-family="Helvetica,sans-Serif" font-size="8.00">s(287)</text>
<text text-anchor="middle" x="425.82" y="-809.68" font-family="Helvetica,sans-Serif" font-size="8.00">q &#45;&gt; datab</text>
</g>
<!-- g5 -->
<g id="node7" class="node">
<title>g5</title>
<polygon fill="#dbe9f6" stroke="#2a5d8f" stroke-width="2" points="385.82,-791.58 317.82,-791.58 317.82,-750.58 385.82,-750.58 385.82,-791.58"/>
<text text-anchor="middle" x="351.82" y="-779.58" font-family="Helvetica,sans-Serif" font-size="10.00">s[242]</text>
<text text-anchor="middle" x="351.82" y="-768.58" font-family="Helvetica,sans-Serif" font-size="10.00">[tennm_ff]</text>
<text text-anchor="middle" x="351.82" y="-757.58" font-family="Helvetica,sans-Serif" font-size="10.00">id 5</text>
</g>
<!-- g5&#45;&gt;g604 -->
<g id="edge8" class="edge">
<title>g5&#45;&gt;g604</title>
<path fill="none" stroke="#777777" d="M364.4,-750.53C393.62,-698.68 470.43,-562.39 504.56,-501.82"/>
<polygon fill="#777777" stroke="#777777" points="507.8,-503.21 509.66,-492.78 501.7,-499.77 507.8,-503.21"/>
<text text-anchor="middle" x="425.82" y="-686.68" font-family="Helvetica,sans-Serif" font-size="8.00">s(242)</text>
<text text-anchor="middle" x="425.82" y="-677.68" font-family="Helvetica,sans-Serif" font-size="8.00">q &#45;&gt; dataa</text>
</g>
<!-- g612 -->
<g id="node8" class="node">
<title>g612</title>
<path fill="#d9d9d9" stroke="#555555" d="M109.48,-367.98C109.48,-367.98 191.66,-439.2 191.66,-439.2 196.19,-443.13 194.73,-447.06 188.73,-447.06 188.73,-447.06 12.09,-447.06 12.09,-447.06 6.09,-447.06 4.62,-443.13 9.16,-439.2 9.16,-439.2 91.34,-367.98 91.34,-367.98 95.88,-364.05 104.94,-364.05 109.48,-367.98"/>
<text text-anchor="middle" x="100.41" y="-426.58" font-family="Helvetica,sans-Serif" font-size="10.00">global_gnd</text>
<text text-anchor="middle" x="100.41" y="-415.58" font-family="Helvetica,sans-Serif" font-size="10.00">[HAL_GND]</text>
<text text-anchor="middle" x="100.41" y="-404.58" font-family="Helvetica,sans-Serif" font-size="10.00">id 612</text>
</g>
<!-- g612&#45;&gt;g604 -->
<g id="edge15" class="edge">
<title>g612&#45;&gt;g604</title>
<path fill="none" stroke="#777777" d="M173.26,-423.15C211.04,-426.28 258.06,-430.88 299.82,-437.08 346.46,-444.01 357.26,-450.62 403.82,-458.08 420.45,-460.75 438.48,-463.14 455.3,-465.16"/>
<polygon fill="#777777" stroke="#777777" points="455.26,-468.68 465.6,-466.37 456.08,-461.73 455.26,-468.68"/>
<text text-anchor="middle" x="351.82" y="-466.68" font-family="Helvetica,sans-Serif" font-size="8.00">&#39;0&#39;</text>
<text text-anchor="middle" x="351.82" y="-457.68" font-family="Helvetica,sans-Serif" font-size="8.00">O &#45;&gt; cin</text>
</g>
<!-- g612&#45;&gt;g600 -->
<g id="edge14" class="edge">
<title>g612&#45;&gt;g600</title>
<path fill="none" stroke="#777777" d="M160.72,-412.23C221.64,-406.54 319.24,-398.29 403.82,-395.08 497.38,-391.53 604.29,-392.97 679.32,-394.88"/>
<polygon fill="#777777" stroke="#777777" points="679.6,-398.39 689.69,-395.16 679.79,-391.39 679.6,-398.39"/>
<text text-anchor="middle" x="425.82" y="-406.68" font-family="Helvetica,sans-Serif" font-size="8.00">&#39;0&#39;</text>
<text text-anchor="middle" x="425.82" y="-397.68" font-family="Helvetica,sans-Serif" font-size="8.00">O &#45;&gt; cin</text>
</g>
<!-- g612&#45;&gt;g300 -->
<g id="edge13" class="edge">
<title>g612&#45;&gt;g300</title>
<path fill="none" stroke="#777777" d="M182.33,-430.96C228.78,-439.71 281.46,-452.34 299.82,-467.08 322.59,-485.37 335.99,-516.4 343.3,-539.64"/>
<polygon fill="#777777" stroke="#777777" points="339.98,-540.76 346.15,-549.38 346.69,-538.8 339.98,-540.76"/>
<text text-anchor="middle" x="259.32" y="-478.68" font-family="Helvetica,sans-Serif" font-size="8.00">&#39;0&#39;</text>
<text text-anchor="middle" x="259.32" y="-469.68" font-family="Helvetica,sans-Serif" font-size="8.00">O &#45;&gt; aload</text>
</g>
<!-- g612&#45;&gt;g34 -->
<g id="edge12" class="edge">
<title>g612&#45;&gt;g34</title>
<path fill="none" stroke="#777777" d="M144.67,-398.28C166.74,-388.35 194.09,-376.28 218.82,-366.08 254.45,-351.38 265.57,-352.77 299.82,-335.08 304.43,-332.7 309.13,-329.99 313.72,-327.17"/>
<polygon fill="#777777" stroke="#777777" points="315.82,-329.98 322.37,-321.66 312.06,-324.08 315.82,-329.98"/>
<text text-anchor="middle" x="259.32" y="-377.68" font-family="Helvetica,sans-Serif" font-size="8.00">&#39;0&#39;</text>
<text text-anchor="middle" x="259.32" y="-368.68" font-family="Helvetica,sans-Serif" font-size="8.00">O &#45;&gt; aload</text>
</g>
<!-- g612&#45;&gt;g20 -->
<g id="edge11" class="edge">
<title>g612&#45;&gt;g20</title>
<path fill="none" stroke="#777777" d="M142.95,-396.41C163.14,-383.91 186.15,-366.44 200.82,-345.08 218.03,-320.02 199.6,-302.64 218.82,-279.08 244.32,-247.82 272.97,-268.2 299.82,-238.08 327.03,-207.55 340.16,-161.23 346.17,-130.81"/>
<polygon fill="#777777" stroke="#777777" points="349.65,-131.23 348.01,-120.76 342.76,-129.97 349.65,-131.23"/>
<text text-anchor="middle" x="259.32" y="-290.68" font-family="Helvetica,sans-Serif" font-size="8.00">&#39;0&#39;</text>
<text text-anchor="middle" x="259.32" y="-281.68" font-family="Helvetica,sans-Serif" font-size="8.00">O &#45;&gt; aload</text>
</g>
<!-- g612&#45;&gt;g6 -->
<g id="edge10" class="edge">
<title>g612&#45;&gt;g6</title>
<path fill="none" stroke="#777777" d="M163.01,-447.21C177.76,-457.15 191.84,-469.72 200.82,-485.08 225.92,-528 191.1,-666.81 218.82,-708.08 241.31,-741.58 274.21,-717.9 299.82,-749.08 304.71,-755.04 329.94,-850.45 342.98,-900.68"/>
<polygon fill="#777777" stroke="#777777" points="339.6,-901.57 345.49,-910.37 346.37,-899.81 339.6,-901.57"/>
<text text-anchor="middle" x="259.32" y="-760.68" font-family="Helvetica,sans-Serif" font-size="8.00">&#39;0&#39;</text>
<text text-anchor="middle" x="259.32" y="-751.68" font-family="Helvetica,sans-Serif" font-size="8.00">O &#45;&gt; aload</text>
</g>
<!-- g612&#45;&gt;g5 -->
<g id="edge9" class="edge">
<title>g612&#45;&gt;g5</title>
<path fill="none" stroke="#777777" d="M150.53,-447.11C167.27,-458.04 185.59,-471.2 200.82,-485.08 210.16,-493.59 208.97,-499.17 218.82,-507.08 250.27,-532.35 274.97,-516.29 299.82,-548.08 311.65,-563.21 334.72,-682.83 345.29,-740.37"/>
<polygon fill="#777777" stroke="#777777" points="341.88,-741.14 347.11,-750.35 348.76,-739.88 341.88,-741.14"/>
<text text-anchor="middle" x="259.32" y="-559.68" font-family="Helvetica,sans-Serif" font-size="8.00">&#39;0&#39;</text>
<text text-anchor="middle" x="259.32" y="-550.68" font-family="Helvetica,sans-Serif" font-size="8.00">O &#45;&gt; aload</text>
</g>
<!-- in_2 -->
<g id="node10" class="node">
<title>in_2</title>
<ellipse fill="#bbbbbb" stroke="#bbbbbb" cx="522.32" cy="-367.08" rx="2.88" ry="2.88"/>
</g>
<!-- in_2&#45;&gt;g600 -->
<g id="edge16" class="edge">
<title>in_2&#45;&gt;g600</title>
<path fill="none" stroke="#bbbbbb" stroke-dasharray="5,2" d="M525.42,-367.06C538.73,-366.99 612.47,-366.95 671.82,-375.08 678.56,-376.01 685.51,-377.14 692.46,-378.41"/>
<polygon fill="#bbbbbb" stroke="#bbbbbb" points="692.16,-381.92 702.64,-380.35 693.48,-375.04 692.16,-381.92"/>
<text text-anchor="middle" x="634.32" y="-377.68" font-family="Helvetica,sans-Serif" font-size="8.00">busy</text>
</g>
<!-- in_3 -->
<g id="node11" class="node">
<title>in_3</title>
<ellipse fill="#bbbbbb" stroke="#bbbbbb" cx="100.41" cy="-570.08" rx="2.88" ry="2.88"/>
</g>
<!-- in_3&#45;&gt;g300 -->
<g id="edge17" class="edge">
<title>in_3&#45;&gt;g300</title>
<path fill="none" stroke="#bbbbbb" stroke-dasharray="5,2" d="M103.57,-570.08C121.1,-570.08 241.35,-570.08 307.46,-570.08"/>
<polygon fill="#bbbbbb" stroke="#bbbbbb" points="307.59,-573.58 317.59,-570.08 307.59,-566.58 307.59,-573.58"/>
<text text-anchor="middle" x="259.32" y="-572.68" font-family="Helvetica,sans-Serif" font-size="8.00">i611~136_combout</text>
</g>
<!-- in_4 -->
<g id="node12" class="node">
<title>in_4</title>
<ellipse fill="#bbbbbb" stroke="#bbbbbb" cx="100.41" cy="-497.08" rx="2.88" ry="2.88"/>
</g>
<!-- in_4&#45;&gt;g300 -->
<g id="edge18" class="edge">
<title>in_4&#45;&gt;g300</title>
<path fill="none" stroke="#bbbbbb" stroke-dasharray="5,2" d="M103.43,-496.84C122.04,-494.69 263.3,-479.08 299.82,-498.08 316.92,-506.98 329.54,-524.54 337.94,-540.08"/>
<polygon fill="#bbbbbb" stroke="#bbbbbb" points="335.01,-542.05 342.63,-549.41 341.27,-538.9 335.01,-542.05"/>
<text text-anchor="middle" x="259.32" y="-500.68" font-family="Helvetica,sans-Serif" font-size="8.00">&#39;1&#39;</text>
</g>
<!-- in_5 -->
<g id="node13" class="node">
<title>in_5</title>
<ellipse fill="#bbbbbb" stroke="#bbbbbb" cx="100.41" cy="-666.08" rx="2.88" ry="2.88"/>
</g>
<!-- in_5&#45;&gt;g300 -->
<g id="edge19" class="edge">
<title>in_5&#45;&gt;g300</title>
<path fill="none" stroke="#bbbbbb" stroke-dasharray="5,2" d="M103.56,-666.36C120.16,-668.4 229.14,-679.85 299.82,-638.08 315.03,-629.09 327.17,-613.63 335.79,-599.72"/>
<polygon fill="#bbbbbb" stroke="#bbbbbb" points="338.92,-601.29 340.94,-590.89 332.88,-597.76 338.92,-601.29"/>
<text text-anchor="middle" x="259.32" y="-667.68" font-family="Helvetica,sans-Serif" font-size="8.00">&#39;1&#39;</text>
</g>
<!-- in_6 -->
<g id="node14" class="node">
<title>in_6</title>
<ellipse fill="#bbbbbb" stroke="#bbbbbb" cx="100.41" cy="-634.08" rx="2.88" ry="2.88"/>
</g>
<!-- in_6&#45;&gt;g300 -->
<g id="edge20" class="edge">
<title>in_6&#45;&gt;g300</title>
<path fill="none" stroke="#bbbbbb" stroke-dasharray="5,2" d="M103.45,-634.1C119.22,-634.21 223.14,-633.74 299.82,-604.08 305.35,-601.94 310.89,-599.12 316.17,-596.02"/>
<polygon fill="#bbbbbb" stroke="#bbbbbb" points="318.18,-598.89 324.77,-590.6 314.45,-592.97 318.18,-598.89"/>
<text text-anchor="middle" x="259.32" y="-627.68" font-family="Helvetica,sans-Serif" font-size="8.00">&#39;1&#39;</text>
</g>
<!-- in_7 -->
<g id="node15" class="node">
<title>in_7</title>
<ellipse fill="#bbbbbb" stroke="#bbbbbb" cx="100.41" cy="-602.08" rx="2.88" ry="2.88"/>
</g>
<!-- in_7&#45;&gt;g300 -->
<g id="edge21" class="edge">
<title>in_7&#45;&gt;g300</title>
<path fill="none" stroke="#bbbbbb" stroke-dasharray="5,2" d="M103.37,-601.93C118.57,-600.71 218.97,-592.47 299.82,-580.08 302.35,-579.69 304.96,-579.27 307.58,-578.82"/>
<polygon fill="#bbbbbb" stroke="#bbbbbb" points="308.47,-582.21 317.69,-576.99 307.23,-575.32 308.47,-582.21"/>
<text text-anchor="middle" x="259.32" y="-593.68" font-family="Helvetica,sans-Serif" font-size="8.00">&#39;1&#39;</text>
</g>
<!-- in_8 -->
<g id="node16" class="node">
<title>in_8</title>
<ellipse fill="#bbbbbb" stroke="#bbbbbb" cx="100.41" cy="-301.08" rx="2.88" ry="2.88"/>
</g>
<!-- in_8&#45;&gt;g34 -->
<g id="edge22" class="edge">
<title>in_8&#45;&gt;g34</title>
<path fill="none" stroke="#bbbbbb" stroke-dasharray="5,2" d="M103.57,-301.08C121.1,-301.08 241.35,-301.08 307.46,-301.08"/>
<polygon fill="#bbbbbb" stroke="#bbbbbb" points="307.59,-304.58 317.59,-301.08 307.59,-297.58 307.59,-304.58"/>
<text text-anchor="middle" x="259.32" y="-303.68" font-family="Helvetica,sans-Serif" font-size="8.00">i611~17_combout</text>
</g>
<!-- in_9 -->
<g id="node17" class="node">
<title>in_9</title>
<ellipse fill="#bbbbbb" stroke="#bbbbbb" cx="100.41" cy="-228.08" rx="2.88" ry="2.88"/>
</g>
<!-- in_9&#45;&gt;g34 -->
<g id="edge23" class="edge">
<title>in_9&#45;&gt;g34</title>
<path fill="none" stroke="#bbbbbb" stroke-dasharray="5,2" d="M103.53,-227.41C119.93,-222.37 227.7,-191.56 299.82,-229.08 316.92,-237.98 329.54,-255.54 337.94,-271.08"/>
<polygon fill="#bbbbbb" stroke="#bbbbbb" points="335.01,-273.05 342.63,-280.41 341.27,-269.9 335.01,-273.05"/>
<text text-anchor="middle" x="259.32" y="-231.68" font-family="Helvetica,sans-Serif" font-size="8.00">&#39;1&#39;</text>
</g>
<!-- in_10 -->
<g id="node18" class="node">
<title>in_10</title>
<ellipse fill="#bbbbbb" stroke="#bbbbbb" cx="100.41" cy="-196.08" rx="2.88" ry="2.88"/>
</g>
<!-- in_10&#45;&gt;g34 -->
<g id="edge24" class="edge">
<title>in_10&#45;&gt;g34</title>
<path fill="none" stroke="#bbbbbb" stroke-dasharray="5,2" d="M103.59,-195.32C120.44,-189.63 230.96,-154.86 299.82,-198.08 325.11,-213.95 338.26,-246.46 344.82,-270.73"/>
<polygon fill="#bbbbbb" stroke="#bbbbbb" points="341.45,-271.69 347.24,-280.56 348.24,-270.01 341.45,-271.69"/>
<text text-anchor="middle" x="259.32" y="-200.68" font-family="Helvetica,sans-Serif" font-size="8.00">&#39;1&#39;</text>
</g>
<!-- in_11 -->
<g id="node19" class="node">
<title>in_11</title>
<ellipse fill="#bbbbbb" stroke="#bbbbbb" cx="100.41" cy="-164.08" rx="2.88" ry="2.88"/>
</g>
<!-- in_11&#45;&gt;g34 -->
<g id="edge25" class="edge">
<title>in_11&#45;&gt;g34</title>
<path fill="none" stroke="#bbbbbb" stroke-dasharray="5,2" d="M103.47,-163.78C122.4,-161.08 266.04,-141.55 299.82,-165.08 333.74,-188.72 345.13,-237.87 348.94,-270.15"/>
<polygon fill="#bbbbbb" stroke="#bbbbbb" points="345.48,-270.79 349.96,-280.39 352.45,-270.09 345.48,-270.79"/>
<text text-anchor="middle" x="259.32" y="-167.68" font-family="Helvetica,sans-Serif" font-size="8.00">&#39;1&#39;</text>
</g>
<!-- in_12 -->
<g id="node20" class="node">
<title>in_12</title>
<ellipse fill="#bbbbbb" stroke="#bbbbbb" cx="100.41" cy="-333.08" rx="2.88" ry="2.88"/>
</g>
<!-- in_12&#45;&gt;g34 -->
<g id="edge26" class="edge">
<title>in_12&#45;&gt;g34</title>
<path fill="none" stroke="#bbbbbb" stroke-dasharray="5,2" d="M103.37,-332.93C118.57,-331.71 218.97,-323.47 299.82,-311.08 302.35,-310.69 304.96,-310.27 307.58,-309.82"/>
<polygon fill="#bbbbbb" stroke="#bbbbbb" points="308.47,-313.21 317.69,-307.99 307.23,-306.32 308.47,-313.21"/>
<text text-anchor="middle" x="259.32" y="-324.68" font-family="Helvetica,sans-Serif" font-size="8.00">&#39;1&#39;</text>
</g>
<!-- in_13 -->
<g id="node21" class="node">
<title>in_13</title>
<ellipse fill="#bbbbbb" stroke="#bbbbbb" cx="100.41" cy="-4.08" rx="2.88" ry="2.88"/>
</g>
<!-- in_13&#45;&gt;g20 -->
<g id="edge27" class="edge">
<title>in_13&#45;&gt;g20</title>
<path fill="none" stroke="#bbbbbb" stroke-dasharray="5,2" d="M103.56,-3.78C120.17,-1.6 229.23,10.73 299.82,-31.08 315.27,-40.24 327.48,-56.08 336.08,-70.27"/>
<polygon fill="#bbbbbb" stroke="#bbbbbb" points="333.21,-72.32 341.2,-79.28 339.3,-68.85 333.21,-72.32"/>
<text text-anchor="middle" x="259.32" y="-33.68" font-family="Helvetica,sans-Serif" font-size="8.00">i611~11_combout</text>
</g>
<!-- in_14 -->
<g id="node22" class="node">
<title>in_14</title>
<ellipse fill="#bbbbbb" stroke="#bbbbbb" cx="100.41" cy="-132.08" rx="2.88" ry="2.88"/>
</g>
<!-- in_14&#45;&gt;g20 -->
<g id="edge28" class="edge">
<title>in_14&#45;&gt;g20</title>
<path fill="none" stroke="#bbbbbb" stroke-dasharray="5,2" d="M103.37,-131.93C118.57,-130.71 218.97,-122.47 299.82,-110.08 302.35,-109.69 304.96,-109.27 307.58,-108.82"/>
<polygon fill="#bbbbbb" stroke="#bbbbbb" points="308.47,-112.21 317.69,-106.99 307.23,-105.32 308.47,-112.21"/>
<text text-anchor="middle" x="259.32" y="-123.68" font-family="Helvetica,sans-Serif" font-size="8.00">&#39;1&#39;</text>
</g>
<!-- in_15 -->
<g id="node23" class="node">
<title>in_15</title>
<ellipse fill="#bbbbbb" stroke="#bbbbbb" cx="100.41" cy="-100.08" rx="2.88" ry="2.88"/>
</g>
<!-- in_15&#45;&gt;g20 -->
<g id="edge29" class="edge">
<title>in_15&#45;&gt;g20</title>
<path fill="none" stroke="#bbbbbb" stroke-dasharray="5,2" d="M103.57,-100.08C121.1,-100.08 241.35,-100.08 307.46,-100.08"/>
<polygon fill="#bbbbbb" stroke="#bbbbbb" points="307.59,-103.58 317.59,-100.08 307.59,-96.58 307.59,-103.58"/>
<text text-anchor="middle" x="259.32" y="-102.68" font-family="Helvetica,sans-Serif" font-size="8.00">&#39;1&#39;</text>
</g>
<!-- in_16 -->
<g id="node24" class="node">
<title>in_16</title>
<ellipse fill="#bbbbbb" stroke="#bbbbbb" cx="100.41" cy="-68.08" rx="2.88" ry="2.88"/>
</g>
<!-- in_16&#45;&gt;g20 -->
<g id="edge30" class="edge">
<title>in_16&#45;&gt;g20</title>
<path fill="none" stroke="#bbbbbb" stroke-dasharray="5,2" d="M103.38,-68.15C118.63,-68.74 219.37,-73.06 299.82,-87.08 302.47,-87.54 305.19,-88.07 307.92,-88.64"/>
<polygon fill="#bbbbbb" stroke="#bbbbbb" points="307.26,-92.08 317.78,-90.87 308.8,-85.26 307.26,-92.08"/>
<text text-anchor="middle" x="259.32" y="-89.68" font-family="Helvetica,sans-Serif" font-size="8.00">&#39;1&#39;</text>
</g>
<!-- in_17 -->
<g id="node25" class="node">
<title>in_17</title>
<ellipse fill="#bbbbbb" stroke="#bbbbbb" cx="100.41" cy="-36.08" rx="2.88" ry="2.88"/>
</g>
<!-- in_17&#45;&gt;g20 -->
<g id="edge31" class="edge">
<title>in_17&#45;&gt;g20</title>
<path fill="none" stroke="#bbbbbb" stroke-dasharray="5,2" d="M103.46,-36.01C119.27,-35.56 223.5,-33.83 299.82,-64.08 306.11,-66.58 312.37,-70 318.24,-73.75"/>
<polygon fill="#bbbbbb" stroke="#bbbbbb" points="316.28,-76.65 326.52,-79.4 320.23,-70.87 316.28,-76.65"/>
<text text-anchor="middle" x="259.32" y="-66.68" font-family="Helvetica,sans-Serif" font-size="8.00">&#39;1&#39;</text>
</g>
<!-- in_18 -->
<g id="node26" class="node">
<title>in_18</title>
<ellipse fill="#bbbbbb" stroke="#bbbbbb" cx="100.41" cy="-963.08" rx="2.88" ry="2.88"/>
</g>
<!-- in_18&#45;&gt;g6 -->
<g id="edge32" class="edge">
<title>in_18&#45;&gt;g6</title>
<path fill="none" stroke="#bbbbbb" stroke-dasharray="5,2" d="M103.37,-962.93C118.57,-961.71 218.97,-953.47 299.82,-941.08 302.35,-940.69 304.96,-940.27 307.58,-939.82"/>
<polygon fill="#bbbbbb" stroke="#bbbbbb" points="308.47,-943.21 317.69,-937.99 307.23,-936.32 308.47,-943.21"/>
<text text-anchor="middle" x="259.32" y="-954.68" font-family="Helvetica,sans-Serif" font-size="8.00">i611~5_combout</text>
</g>
<!-- in_19 -->
<g id="node27" class="node">
<title>in_19</title>
<ellipse fill="#bbbbbb" stroke="#bbbbbb" cx="100.41" cy="-931.08" rx="2.88" ry="2.88"/>
</g>
<!-- in_19&#45;&gt;g6 -->
<g id="edge33" class="edge">
<title>in_19&#45;&gt;g6</title>
<path fill="none" stroke="#bbbbbb" stroke-dasharray="5,2" d="M103.57,-931.08C121.1,-931.08 241.35,-931.08 307.46,-931.08"/>
<polygon fill="#bbbbbb" stroke="#bbbbbb" points="307.59,-934.58 317.59,-931.08 307.59,-927.58 307.59,-934.58"/>
<text text-anchor="middle" x="259.32" y="-933.68" font-family="Helvetica,sans-Serif" font-size="8.00">&#39;1&#39;</text>
</g>
<!-- in_20 -->
<g id="node28" class="node">
<title>in_20</title>
<ellipse fill="#bbbbbb" stroke="#bbbbbb" cx="100.41" cy="-899.08" rx="2.88" ry="2.88"/>
</g>
<!-- in_20&#45;&gt;g6 -->
<g id="edge34" class="edge">
<title>in_20&#45;&gt;g6</title>
<path fill="none" stroke="#bbbbbb" stroke-dasharray="5,2" d="M103.38,-899.15C118.63,-899.74 219.37,-904.06 299.82,-918.08 302.47,-918.54 305.19,-919.07 307.92,-919.64"/>
<polygon fill="#bbbbbb" stroke="#bbbbbb" points="307.26,-923.08 317.78,-921.87 308.8,-916.26 307.26,-923.08"/>
<text text-anchor="middle" x="259.32" y="-920.68" font-family="Helvetica,sans-Serif" font-size="8.00">&#39;1&#39;</text>
</g>
<!-- in_21 -->
<g id="node29" class="node">
<title>in_21</title>
<ellipse fill="#bbbbbb" stroke="#bbbbbb" cx="100.41" cy="-1027.08" rx="2.88" ry="2.88"/>
</g>
<!-- in_21&#45;&gt;g6 -->
<g id="edge35" class="edge">
<title>in_21&#45;&gt;g6</title>
<path fill="none" stroke="#bbbbbb" stroke-dasharray="5,2" d="M103.56,-1027.36C120.16,-1029.4 229.14,-1040.85 299.82,-999.08 315.03,-990.09 327.17,-974.63 335.79,-960.72"/>
<polygon fill="#bbbbbb" stroke="#bbbbbb" points="338.92,-962.29 340.94,-951.89 332.88,-958.76 338.92,-962.29"/>
<text text-anchor="middle" x="259.32" y="-1028.68" font-family="Helvetica,sans-Serif" font-size="8.00">&#39;1&#39;</text>
</g>
<!-- in_22 -->
<g id="node30" class="node">
<title>in_22</title>
<ellipse fill="#bbbbbb" stroke="#bbbbbb" cx="100.41" cy="-995.08" rx="2.88" ry="2.88"/>
</g>
<!-- in_22&#45;&gt;g6 -->
<g id="edge36" class="edge">
<title>in_22&#45;&gt;g6</title>
<path fill="none" stroke="#bbbbbb" stroke-dasharray="5,2" d="M103.45,-995.1C119.22,-995.21 223.14,-994.74 299.82,-965.08 305.35,-962.94 310.89,-960.12 316.17,-957.02"/>
<polygon fill="#bbbbbb" stroke="#bbbbbb" points="318.18,-959.89 324.77,-951.6 314.45,-953.97 318.18,-959.89"/>
<text text-anchor="middle" x="259.32" y="-988.68" font-family="Helvetica,sans-Serif" font-size="8.00">&#39;1&#39;</text>
</g>
<!-- in_23 -->
<g id="node31" class="node">
<title>in_23</title>
<ellipse fill="#bbbbbb" stroke="#bbbbbb" cx="100.41" cy="-867.08" rx="2.88" ry="2.88"/>
</g>
<!-- in_23&#45;&gt;g5 -->
<g id="edge37" class="edge">
<title>in_23&#45;&gt;g5</title>
<path fill="none" stroke="#bbbbbb" stroke-dasharray="5,2" d="M103.56,-867.36C120.16,-869.4 229.14,-880.85 299.82,-839.08 315.03,-830.09 327.17,-814.63 335.79,-800.72"/>
<polygon fill="#bbbbbb" stroke="#bbbbbb" points="338.92,-802.29 340.94,-791.89 332.88,-798.76 338.92,-802.29"/>
<text text-anchor="middle" x="259.32" y="-868.68" font-family="Helvetica,sans-Serif" font-size="8.00">i611~4_combout</text>
</g>
<!-- in_24 -->
<g id="node32" class="node">
<title>in_24</title>
<ellipse fill="#bbbbbb" stroke="#bbbbbb" cx="100.41" cy="-835.08" rx="2.88" ry="2.88"/>
</g>
<!-- in_24&#45;&gt;g5 -->
<g id="edge38" class="edge">
<title>in_24&#45;&gt;g5</title>
<path fill="none" stroke="#bbbbbb" stroke-dasharray="5,2" d="M103.45,-835.1C119.22,-835.21 223.14,-834.74 299.82,-805.08 305.35,-802.94 310.89,-800.12 316.17,-797.02"/>
<polygon fill="#bbbbbb" stroke="#bbbbbb" points="318.18,-799.89 324.77,-791.6 314.45,-793.97 318.18,-799.89"/>
<text text-anchor="middle" x="259.32" y="-828.68" font-family="Helvetica,sans-Serif" font-size="8.00">&#39;1&#39;</text>
</g>
<!-- in_25 -->
<g id="node33" class="node">
<title>in_25</title>
<ellipse fill="#bbbbbb" stroke="#bbbbbb" cx="100.41" cy="-803.08" rx="2.88" ry="2.88"/>
</g>
<!-- in_25&#45;&gt;g5 -->
<g id="edge39" class="edge">
<title>in_25&#45;&gt;g5</title>
<path fill="none" stroke="#bbbbbb" stroke-dasharray="5,2" d="M103.37,-802.93C118.57,-801.71 218.97,-793.47 299.82,-781.08 302.35,-780.69 304.96,-780.27 307.58,-779.82"/>
<polygon fill="#bbbbbb" stroke="#bbbbbb" points="308.47,-783.21 317.69,-777.99 307.23,-776.32 308.47,-783.21"/>
<text text-anchor="middle" x="259.32" y="-794.68" font-family="Helvetica,sans-Serif" font-size="8.00">&#39;1&#39;</text>
</g>
<!-- in_26 -->
<g id="node34" class="node">
<title>in_26</title>
<ellipse fill="#bbbbbb" stroke="#bbbbbb" cx="100.41" cy="-771.08" rx="2.88" ry="2.88"/>
</g>
<!-- in_26&#45;&gt;g5 -->
<g id="edge40" class="edge">
<title>in_26&#45;&gt;g5</title>
<path fill="none" stroke="#bbbbbb" stroke-dasharray="5,2" d="M103.57,-771.08C121.1,-771.08 241.35,-771.08 307.46,-771.08"/>
<polygon fill="#bbbbbb" stroke="#bbbbbb" points="307.59,-774.58 317.59,-771.08 307.59,-767.58 307.59,-774.58"/>
<text text-anchor="middle" x="259.32" y="-773.68" font-family="Helvetica,sans-Serif" font-size="8.00">&#39;1&#39;</text>
</g>
<!-- in_27 -->
<g id="node35" class="node">
<title>in_27</title>
<ellipse fill="#bbbbbb" stroke="#bbbbbb" cx="100.41" cy="-698.08" rx="2.88" ry="2.88"/>
</g>
<!-- in_27&#45;&gt;g5 -->
<g id="edge41" class="edge">
<title>in_27&#45;&gt;g5</title>
<path fill="none" stroke="#bbbbbb" stroke-dasharray="5,2" d="M103.53,-697.41C119.93,-692.37 227.7,-661.56 299.82,-699.08 316.92,-707.98 329.54,-725.54 337.94,-741.08"/>
<polygon fill="#bbbbbb" stroke="#bbbbbb" points="335.01,-743.05 342.63,-750.41 341.27,-739.9 335.01,-743.05"/>
<text text-anchor="middle" x="259.32" y="-701.68" font-family="Helvetica,sans-Serif" font-size="8.00">&#39;1&#39;</text>
</g>
<!-- legend_comb -->
<g id="node36" class="node">
<title>legend_comb</title>
<path fill="#f4f4f4" stroke="#555555" d="M128.41,-1348.08C128.41,-1348.08 72.41,-1348.08 72.41,-1348.08 66.41,-1348.08 60.41,-1342.08 60.41,-1336.08 60.41,-1336.08 60.41,-1324.08 60.41,-1324.08 60.41,-1318.08 66.41,-1312.08 72.41,-1312.08 72.41,-1312.08 128.41,-1312.08 128.41,-1312.08 134.41,-1312.08 140.41,-1318.08 140.41,-1324.08 140.41,-1324.08 140.41,-1336.08 140.41,-1336.08 140.41,-1342.08 134.41,-1348.08 128.41,-1348.08"/>
<text text-anchor="middle" x="100.41" y="-1332.88" font-family="Helvetica,sans-Serif" font-size="9.00">combinational</text>
<text text-anchor="middle" x="100.41" y="-1322.88" font-family="Helvetica,sans-Serif" font-size="9.00">gate</text>
</g>
<!-- legend_seq -->
<g id="node37" class="node">
<title>legend_seq</title>
<polygon fill="#dbe9f6" stroke="#2a5d8f" stroke-width="2" points="128.91,-1294.08 71.91,-1294.08 71.91,-1258.08 128.91,-1258.08 128.91,-1294.08"/>
<text text-anchor="middle" x="100.41" y="-1278.88" font-family="Helvetica,sans-Serif" font-size="9.00">flip&#45;flop /</text>
<text text-anchor="middle" x="100.41" y="-1268.88" font-family="Helvetica,sans-Serif" font-size="9.00">latch</text>
</g>
<!-- legend_io -->
<g id="node38" class="node">
<title>legend_io</title>
<polygon fill="#d6ecff" stroke="#2a5d8f" points="142.9,-1214.63 142.9,-1229.54 118.01,-1240.08 82.81,-1240.08 57.92,-1229.54 57.92,-1214.63 82.81,-1204.08 118.01,-1204.08 142.9,-1214.63"/>
<text text-anchor="middle" x="100.41" y="-1219.88" font-family="Helvetica,sans-Serif" font-size="9.00">primary I/O</text>
</g>
<!-- legend_tie0 -->
<g id="node39" class="node">
<title>legend_tie0</title>
<ellipse fill="#e8e8e8" stroke="#8a8a8a" cx="100.41" cy="-1176.08" rx="10" ry="10"/>
<text text-anchor="middle" x="100.41" y="-1173.58" font-family="Helvetica,sans-Serif" font-size="10.00">0</text>
</g>
<!-- legend_tie1 -->
<g id="node40" class="node">
<title>legend_tie1</title>
<ellipse fill="#fff2cc" stroke="#bf9000" cx="100.41" cy="-1138.08" rx="10" ry="10"/>
<text text-anchor="middle" x="100.41" y="-1135.58" font-family="Helvetica,sans-Serif" font-size="10.00">1</text>
</g>
<!-- legend_tie_note -->
<g id="node41" class="node">
<title>legend_tie_note</title>
<text text-anchor="middle" x="100.41" y="-1094.88" font-family="Helvetica,sans-Serif" font-size="9.00" fill="#555555">constant tie&#45;off,</text>
<text text-anchor="middle" x="100.41" y="-1084.88" font-family="Helvetica,sans-Serif" font-size="9.00" fill="#555555">one stub per sink</text>
</g>
<!-- legend_net_a -->
<g id="node42" class="node">
<title>legend_net_a</title>
<ellipse fill="#777777" stroke="#777777" cx="100.41" cy="-1054.08" rx="2.16" ry="2.16"/>
</g>
<!-- legend_net_b -->
<g id="node43" class="node">
<title>legend_net_b</title>
<ellipse fill="#777777" stroke="#777777" cx="351.82" cy="-1070.08" rx="2.16" ry="2.16"/>
</g>
<!-- legend_net_a&#45;&gt;legend_net_b -->
<g id="edge1" class="edge">
<title>legend_net_a&#45;&gt;legend_net_b</title>
<path fill="none" stroke="#777777" d="M103,-1054.18C121.35,-1055.36 292.9,-1066.37 339.3,-1069.34"/>
<polygon fill="#777777" stroke="#777777" points="339.17,-1072.84 349.37,-1069.99 339.61,-1065.86 339.17,-1072.84"/>
<text text-anchor="middle" x="259.32" y="-1068.88" font-family="Helvetica,sans-Serif" font-size="9.00">net</text>
</g>
</g>
</svg>
