<?xml version="1.0" encoding="UTF-8" standalone="no"?>
<!DOCTYPE svg PUBLIC "-//W3C//DTD SVG 1.1//EN"
 "http://www.w3.org/Graphics/SVG/1.1/DTD/svg11.dtd">
<!-- Generated by graphviz version 2.43.0 (0)
 -->
<!-- Title: trivium_stream &#45; gate &#39;s[92]&#39; (id 2), depth 1, both &#45; 6 gates Pages: 1 -->
<svg width="994pt" height="776pt"
 viewBox="0.00 0.00 993.71 775.88" xmlns="http://www.w3.org/2000/svg" xmlns:xlink="http://www.w3.org/1999/xlink">
<g id="graph0" class="graph" transform="scale(1 1) rotate(0) translate(4 771.88)">
<title>trivium_stream &#45; gate &#39;s[92]&#39; (id 2), depth 1, both &#45; 6 gates</title>
<polygon fill="white" stroke="transparent" points="-4,4 -4,-771.88 989.71,-771.88 989.71,4 -4,4"/>
<text text-anchor="middle" x="492.86" y="-751.08" font-family="Helvetica,sans-Serif" font-size="16.00">trivium_stream &#45; gate &#39;s[92]&#39; (id 2), depth 1, both &#45; 6 gates</text>
<g id="clust1" class="cluster">
<title>cluster_legend</title>
<path fill="#fcfcfc" stroke="#bbbbbb" d="M56.91,-401.88C56.91,-401.88 365.56,-401.88 365.56,-401.88 371.56,-401.88 377.56,-407.88 377.56,-413.88 377.56,-413.88 377.56,-721.88 377.56,-721.88 377.56,-727.88 371.56,-733.88 365.56,-733.88 365.56,-733.88 56.91,-733.88 56.91,-733.88 50.91,-733.88 44.91,-727.88 44.91,-721.88 44.91,-721.88 44.91,-413.88 44.91,-413.88 44.91,-407.88 50.91,-401.88 56.91,-401.88"/>
<text text-anchor="middle" x="211.23" y="-721.08" font-family="Helvetica,sans-Serif" font-size="11.00">legend</text>
</g>
<!-- g2 -->
<g id="node1" class="node">
<title>g2</title>
<polygon fill="#dbe9f6" stroke="#2a5d8f" stroke-width="2" points="638.98,-264.38 570.98,-264.38 570.98,-223.38 638.98,-223.38 638.98,-264.38"/>
<text text-anchor="middle" x="604.98" y="-252.38" font-family="Helvetica,sans-Serif" font-size="10.00">s[92]</text>
<text text-anchor="middle" x="604.98" y="-241.38" font-family="Helvetica,sans-Serif" font-size="10.00">[tennm_ff]</text>
<text text-anchor="middle" x="604.98" y="-230.38" font-family="Helvetica,sans-Serif" font-size="10.00">id 2</text>
</g>
<!-- g611 -->
<g id="node2" class="node">
<title>g611</title>
<path fill="#f4f4f4" stroke="#555555" d="M849.97,-357.38C849.97,-357.38 760.97,-357.38 760.97,-357.38 754.97,-357.38 748.97,-351.38 748.97,-345.38 748.97,-345.38 748.97,-328.38 748.97,-328.38 748.97,-322.38 754.97,-316.38 760.97,-316.38 760.97,-316.38 849.97,-316.38 849.97,-316.38 855.97,-316.38 861.97,-322.38 861.97,-328.38 861.97,-328.38 861.97,-345.38 861.97,-345.38 861.97,-351.38 855.97,-357.38 849.97,-357.38"/>
<text text-anchor="middle" x="805.47" y="-345.38" font-family="Helvetica,sans-Serif" font-size="10.00">t1</text>
<text text-anchor="middle" x="805.47" y="-334.38" font-family="Helvetica,sans-Serif" font-size="10.00">[tennm_lcell_comb]</text>
<text text-anchor="middle" x="805.47" y="-323.38" font-family="Helvetica,sans-Serif" font-size="10.00">id 611</text>
</g>
<!-- g2&#45;&gt;g611 -->
<g id="edge3" class="edge">
<title>g2&#45;&gt;g611</title>
<path fill="none" stroke="#777777" d="M638.99,-255.09C657.48,-261.69 680.81,-270.56 700.98,-279.88 721.3,-289.27 743.11,-301.01 761.43,-311.4"/>
<polygon fill="#777777" stroke="#777777" points="759.71,-314.44 770.13,-316.37 763.19,-308.37 759.71,-314.44"/>
<text text-anchor="middle" x="678.98" y="-291.48" font-family="Helvetica,sans-Serif" font-size="8.00">s(92)</text>
<text text-anchor="middle" x="678.98" y="-282.48" font-family="Helvetica,sans-Serif" font-size="8.00">q &#45;&gt; datab</text>
</g>
<!-- g7 -->
<g id="node3" class="node">
<title>g7</title>
<polygon fill="#d6ecff" stroke="#2a5d8f" points="891.94,-85.93 891.94,-111.83 841.28,-130.14 769.65,-130.14 718.99,-111.83 718.99,-85.93 769.65,-67.62 841.28,-67.62 891.94,-85.93"/>
<text text-anchor="middle" x="805.47" y="-107.38" font-family="Helvetica,sans-Serif" font-size="10.00">ks~0</text>
<text text-anchor="middle" x="805.47" y="-96.38" font-family="Helvetica,sans-Serif" font-size="10.00">[tennm_lcell_comb]</text>
<text text-anchor="middle" x="805.47" y="-85.38" font-family="Helvetica,sans-Serif" font-size="10.00">id 7</text>
</g>
<!-- g2&#45;&gt;g7 -->
<g id="edge2" class="edge">
<title>g2&#45;&gt;g7</title>
<path fill="none" stroke="#777777" d="M634.42,-223.11C666.01,-200.03 717.57,-162.36 755.65,-134.54"/>
<polygon fill="#777777" stroke="#777777" points="758.03,-137.14 764.04,-128.41 753.9,-131.48 758.03,-137.14"/>
<text text-anchor="middle" x="678.98" y="-217.48" font-family="Helvetica,sans-Serif" font-size="8.00">s(92)</text>
<text text-anchor="middle" x="678.98" y="-208.48" font-family="Helvetica,sans-Serif" font-size="8.00">q &#45;&gt; datab</text>
</g>
<!-- out_1 -->
<g id="node7" class="node">
<title>out_1</title>
<ellipse fill="#bbbbbb" stroke="#bbbbbb" cx="982.83" cy="-336.88" rx="2.88" ry="2.88"/>
</g>
<!-- g611&#45;&gt;out_1 -->
<g id="edge4" class="edge">
<title>g611&#45;&gt;out_1</title>
<path fill="none" stroke="#bbbbbb" stroke-dasharray="5,2" d="M862.44,-336.88C900.44,-336.88 947.63,-336.88 969.56,-336.88"/>
<polygon fill="#bbbbbb" stroke="#bbbbbb" points="969.82,-340.38 979.82,-336.88 969.81,-333.38 969.82,-340.38"/>
<text text-anchor="middle" x="935.95" y="-339.48" font-family="Helvetica,sans-Serif" font-size="8.00">t1~combout</text>
</g>
<!-- g613 -->
<g id="node4" class="node">
<title>g613</title>
<path fill="#fff2cc" stroke="#555555" d="M358.44,-293.87C358.44,-293.87 278.7,-222.88 278.7,-222.88 274.22,-218.89 275.74,-214.9 281.74,-214.9 281.74,-214.9 453.06,-214.9 453.06,-214.9 459.06,-214.9 460.58,-218.89 456.1,-222.88 456.1,-222.88 376.36,-293.87 376.36,-293.87 371.88,-297.86 362.92,-297.86 358.44,-293.87"/>
<text text-anchor="middle" x="367.4" y="-252.38" font-family="Helvetica,sans-Serif" font-size="10.00">global_vcc</text>
<text text-anchor="middle" x="367.4" y="-241.38" font-family="Helvetica,sans-Serif" font-size="10.00">[HAL_VCC]</text>
<text text-anchor="middle" x="367.4" y="-230.38" font-family="Helvetica,sans-Serif" font-size="10.00">id 613</text>
</g>
<!-- g613&#45;&gt;g2 -->
<g id="edge5" class="edge">
<title>g613&#45;&gt;g2</title>
<path fill="none" stroke="#777777" d="M432.77,-243.88C473.44,-243.88 524.89,-243.88 560.72,-243.88"/>
<polygon fill="#777777" stroke="#777777" points="560.85,-247.38 570.85,-243.88 560.85,-240.38 560.85,-247.38"/>
<text text-anchor="middle" x="517.98" y="-255.48" font-family="Helvetica,sans-Serif" font-size="8.00">&#39;1&#39;</text>
<text text-anchor="middle" x="517.98" y="-246.48" font-family="Helvetica,sans-Serif" font-size="8.00">O &#45;&gt; asdata</text>
</g>
<!-- g13 -->
<g id="node5" class="node">
<title>g13</title>
<polygon fill="#d6ecff" stroke="#2a5d8f" points="453.87,-82.93 453.87,-108.83 403.22,-127.14 331.58,-127.14 280.93,-108.83 280.93,-82.93 331.58,-64.62 403.22,-64.62 453.87,-82.93"/>
<text text-anchor="middle" x="367.4" y="-104.38" font-family="Helvetica,sans-Serif" font-size="10.00">i611~1</text>
<text text-anchor="middle" x="367.4" y="-93.38" font-family="Helvetica,sans-Serif" font-size="10.00">[tennm_lcell_comb]</text>
<text text-anchor="middle" x="367.4" y="-82.38" font-family="Helvetica,sans-Serif" font-size="10.00">id 13</text>
</g>
<!-- g13&#45;&gt;g2 -->
<g id="edge6" class="edge">
<title>g13&#45;&gt;g2</title>
<path fill="none" stroke="#777777" d="M453.91,-88.2C487.76,-89.43 525.16,-96.62 552.98,-117.88 568.7,-129.89 585.7,-180.21 595.57,-213.51"/>
<polygon fill="#777777" stroke="#777777" points="592.24,-214.61 598.39,-223.24 598.96,-212.66 592.24,-214.61"/>
<text text-anchor="middle" x="517.98" y="-129.48" font-family="Helvetica,sans-Serif" font-size="8.00">i611~1_combout</text>
<text text-anchor="middle" x="517.98" y="-120.48" font-family="Helvetica,sans-Serif" font-size="8.00">combout &#45;&gt; d</text>
</g>
<!-- g612 -->
<g id="node6" class="node">
<title>g612</title>
<path fill="#d9d9d9" stroke="#555555" d="M109.48,-202.77C109.48,-202.77 191.66,-274 191.66,-274 196.19,-277.93 194.73,-281.86 188.73,-281.86 188.73,-281.86 12.09,-281.86 12.09,-281.86 6.09,-281.86 4.62,-277.93 9.16,-274 9.16,-274 91.34,-202.77 91.34,-202.77 95.88,-198.84 104.94,-198.84 109.48,-202.77"/>
<text text-anchor="middle" x="100.41" y="-261.38" font-family="Helvetica,sans-Serif" font-size="10.00">global_gnd</text>
<text text-anchor="middle" x="100.41" y="-250.38" font-family="Helvetica,sans-Serif" font-size="10.00">[HAL_GND]</text>
<text text-anchor="middle" x="100.41" y="-239.38" font-family="Helvetica,sans-Serif" font-size="10.00">id 612</text>
</g>
<!-- g612&#45;&gt;g2 -->
<g id="edge7" class="edge">
<title>g612&#45;&gt;g2</title>
<path fill="none" stroke="#777777" d="M169.3,-282.02C199.48,-293.45 235.81,-305.19 269.82,-310.88 355.37,-325.2 380.42,-330.2 464.98,-310.88 500.06,-302.87 536.59,-284.82 563.4,-269.47"/>
<polygon fill="#777777" stroke="#777777" points="565.23,-272.45 572.1,-264.39 561.7,-266.41 565.23,-272.45"/>
<text text-anchor="middle" x="367.4" y="-335.48" font-family="Helvetica,sans-Serif" font-size="8.00">&#39;0&#39;</text>
<text text-anchor="middle" x="367.4" y="-326.48" font-family="Helvetica,sans-Serif" font-size="8.00">O &#45;&gt; aload</text>
</g>
<!-- g612&#45;&gt;g611 -->
<g id="edge10" class="edge">
<title>g612&#45;&gt;g611</title>
<path fill="none" stroke="#777777" d="M141.69,-281.88C174.47,-303.75 222.83,-332.24 269.82,-345.88 453.97,-399.34 511.17,-389.15 700.98,-361.88 713.32,-360.11 726.35,-357.53 738.84,-354.7"/>
<polygon fill="#777777" stroke="#777777" points="739.78,-358.08 748.72,-352.39 738.18,-351.26 739.78,-358.08"/>
<text text-anchor="middle" x="517.98" y="-396.48" font-family="Helvetica,sans-Serif" font-size="8.00">&#39;0&#39;</text>
<text text-anchor="middle" x="517.98" y="-387.48" font-family="Helvetica,sans-Serif" font-size="8.00">O &#45;&gt; cin</text>
</g>
<!-- g612&#45;&gt;g7 -->
<g id="edge8" class="edge">
<title>g612&#45;&gt;g7</title>
<path fill="none" stroke="#777777" d="M141.56,-230.3C174.85,-212.69 223.97,-189.21 269.82,-176.88 455.83,-126.84 512.57,-172.95 700.98,-132.88 712,-130.54 723.49,-127.44 734.64,-124.08"/>
<polygon fill="#777777" stroke="#777777" points="735.82,-127.37 744.33,-121.06 733.74,-120.69 735.82,-127.37"/>
<text text-anchor="middle" x="517.98" y="-163.48" font-family="Helvetica,sans-Serif" font-size="8.00">&#39;0&#39;</text>
<text text-anchor="middle" x="517.98" y="-154.48" font-family="Helvetica,sans-Serif" font-size="8.00">O &#45;&gt; cin</text>
</g>
<!-- g612&#45;&gt;g13 -->
<g id="edge9" class="edge">
<title>g612&#45;&gt;g13</title>
<path fill="none" stroke="#777777" d="M125.36,-216.37C146.45,-187.24 179.83,-147.82 218.82,-125.88 234.68,-116.95 252.83,-110.66 270.84,-106.24"/>
<polygon fill="#777777" stroke="#777777" points="271.85,-109.6 280.82,-103.96 270.3,-102.77 271.85,-109.6"/>
<text text-anchor="middle" x="235.32" y="-137.48" font-family="Helvetica,sans-Serif" font-size="8.00">&#39;0&#39;</text>
<text text-anchor="middle" x="235.32" y="-128.48" font-family="Helvetica,sans-Serif" font-size="8.00">O &#45;&gt; cin</text>
</g>
<!-- in_2 -->
<g id="node8" class="node">
<title>in_2</title>
<ellipse fill="#bbbbbb" stroke="#bbbbbb" cx="604.98" cy="-352.88" rx="2.88" ry="2.88"/>
</g>
<!-- in_2&#45;&gt;g611 -->
<g id="edge11" class="edge">
<title>in_2&#45;&gt;g611</title>
<path fill="none" stroke="#bbbbbb" stroke-dasharray="5,2" d="M608.21,-352.7C621.03,-351.67 686.58,-346.38 738.44,-342.2"/>
<polygon fill="#bbbbbb" stroke="#bbbbbb" points="738.93,-345.67 748.62,-341.38 738.37,-338.7 738.93,-345.67"/>
<text text-anchor="middle" x="678.98" y="-351.48" font-family="Helvetica,sans-Serif" font-size="8.00">s(65)</text>
</g>
<!-- in_3 -->
<g id="node9" class="node">
<title>in_3</title>
<ellipse fill="#bbbbbb" stroke="#bbbbbb" cx="604.98" cy="-320.88" rx="2.88" ry="2.88"/>
</g>
<!-- in_3&#45;&gt;g611 -->
<g id="edge12" class="edge">
<title>in_3&#45;&gt;g611</title>
<path fill="none" stroke="#bbbbbb" stroke-dasharray="5,2" d="M608.21,-321.06C621.03,-322.09 686.58,-327.38 738.44,-331.56"/>
<polygon fill="#bbbbbb" stroke="#bbbbbb" points="738.37,-335.06 748.62,-332.38 738.93,-328.09 738.37,-335.06"/>
<text text-anchor="middle" x="678.98" y="-331.48" font-family="Helvetica,sans-Serif" font-size="8.00">s(91)</text>
</g>
<!-- in_4 -->
<g id="node10" class="node">
<title>in_4</title>
<ellipse fill="#bbbbbb" stroke="#bbbbbb" cx="604.98" cy="-288.88" rx="2.88" ry="2.88"/>
</g>
<!-- in_4&#45;&gt;g611 -->
<g id="edge13" class="edge">
<title>in_4&#45;&gt;g611</title>
<path fill="none" stroke="#bbbbbb" stroke-dasharray="5,2" d="M608.21,-289.42C621.05,-292.53 686.85,-308.44 738.77,-320.99"/>
<polygon fill="#bbbbbb" stroke="#bbbbbb" points="738.07,-324.42 748.62,-323.37 739.72,-317.62 738.07,-324.42"/>
<text text-anchor="middle" x="678.98" y="-314.48" font-family="Helvetica,sans-Serif" font-size="8.00">s(90)</text>
</g>
<!-- in_5 -->
<g id="node11" class="node">
<title>in_5</title>
<ellipse fill="#bbbbbb" stroke="#bbbbbb" cx="604.98" cy="-416.88" rx="2.88" ry="2.88"/>
</g>
<!-- in_5&#45;&gt;g611 -->
<g id="edge14" class="edge">
<title>in_5&#45;&gt;g611</title>
<path fill="none" stroke="#bbbbbb" stroke-dasharray="5,2" d="M608.4,-416.58C619.4,-415.15 665.61,-408.57 700.98,-394.88 722.77,-386.45 745.57,-374.1 764.2,-362.96"/>
<polygon fill="#bbbbbb" stroke="#bbbbbb" points="766.27,-365.8 772.99,-357.62 762.63,-359.82 766.27,-365.8"/>
<text text-anchor="middle" x="678.98" y="-409.48" font-family="Helvetica,sans-Serif" font-size="8.00">s(170)</text>
</g>
<!-- in_6 -->
<g id="node12" class="node">
<title>in_6</title>
<ellipse fill="#bbbbbb" stroke="#bbbbbb" cx="604.98" cy="-126.88" rx="2.88" ry="2.88"/>
</g>
<!-- in_6&#45;&gt;g7 -->
<g id="edge15" class="edge">
<title>in_6&#45;&gt;g7</title>
<path fill="none" stroke="#bbbbbb" stroke-dasharray="5,2" d="M608.21,-126.57C618.66,-125.09 664.19,-118.67 708.77,-112.38"/>
<polygon fill="#bbbbbb" stroke="#bbbbbb" points="709.44,-115.82 718.85,-110.96 708.46,-108.89 709.44,-115.82"/>
<text text-anchor="middle" x="678.98" y="-122.48" font-family="Helvetica,sans-Serif" font-size="8.00">s(65)</text>
</g>
<!-- in_7 -->
<g id="node13" class="node">
<title>in_7</title>
<ellipse fill="#bbbbbb" stroke="#bbbbbb" cx="604.98" cy="-98.88" rx="2.88" ry="2.88"/>
</g>
<!-- in_7&#45;&gt;g7 -->
<g id="edge16" class="edge">
<title>in_7&#45;&gt;g7</title>
<path fill="none" stroke="#bbbbbb" stroke-dasharray="5,2" d="M608.21,-98.88C618.66,-98.88 664.19,-98.88 708.77,-98.88"/>
<polygon fill="#bbbbbb" stroke="#bbbbbb" points="708.85,-102.38 718.85,-98.88 708.85,-95.38 708.85,-102.38"/>
<text text-anchor="middle" x="678.98" y="-101.48" font-family="Helvetica,sans-Serif" font-size="8.00">s(161)</text>
</g>
<!-- in_8 -->
<g id="node14" class="node">
<title>in_8</title>
<ellipse fill="#bbbbbb" stroke="#bbbbbb" cx="604.98" cy="-66.88" rx="2.88" ry="2.88"/>
</g>
<!-- in_8&#45;&gt;g7 -->
<g id="edge17" class="edge">
<title>in_8&#45;&gt;g7</title>
<path fill="none" stroke="#bbbbbb" stroke-dasharray="5,2" d="M608.21,-67.24C618.8,-68.95 665.43,-76.46 710.57,-83.74"/>
<polygon fill="#bbbbbb" stroke="#bbbbbb" points="710.04,-87.2 720.47,-85.34 711.15,-80.29 710.04,-87.2"/>
<text text-anchor="middle" x="678.98" y="-85.48" font-family="Helvetica,sans-Serif" font-size="8.00">s(176)</text>
</g>
<!-- in_9 -->
<g id="node15" class="node">
<title>in_9</title>
<ellipse fill="#bbbbbb" stroke="#bbbbbb" cx="604.98" cy="-34.88" rx="2.88" ry="2.88"/>
</g>
<!-- in_9&#45;&gt;g7 -->
<g id="edge18" class="edge">
<title>in_9&#45;&gt;g7</title>
<path fill="none" stroke="#bbbbbb" stroke-dasharray="5,2" d="M608.34,-35.53C619.08,-38.5 664.31,-51.1 700.98,-62.88 711.63,-66.3 722.84,-70.05 733.8,-73.79"/>
<polygon fill="#bbbbbb" stroke="#bbbbbb" points="732.75,-77.13 743.34,-77.07 735.02,-70.51 732.75,-77.13"/>
<text text-anchor="middle" x="678.98" y="-65.48" font-family="Helvetica,sans-Serif" font-size="8.00">s(242)</text>
</g>
<!-- in_10 -->
<g id="node16" class="node">
<title>in_10</title>
<ellipse fill="#bbbbbb" stroke="#bbbbbb" cx="604.98" cy="-2.88" rx="2.88" ry="2.88"/>
</g>
<!-- in_10&#45;&gt;g7 -->
<g id="edge19" class="edge">
<title>in_10&#45;&gt;g7</title>
<path fill="none" stroke="#bbbbbb" stroke-dasharray="5,2" d="M607.84,-3.43C617.7,-6.36 664.77,-20.71 700.98,-37.88 717.99,-45.95 735.88,-55.91 751.9,-65.43"/>
<polygon fill="#bbbbbb" stroke="#bbbbbb" points="750.22,-68.5 760.59,-70.66 753.83,-62.51 750.22,-68.5"/>
<text text-anchor="middle" x="678.98" y="-40.48" font-family="Helvetica,sans-Serif" font-size="8.00">s(287)</text>
</g>
<!-- in_11 -->
<g id="node17" class="node">
<title>in_11</title>
<ellipse fill="#bbbbbb" stroke="#bbbbbb" cx="100.41" cy="-92.88" rx="2.88" ry="2.88"/>
</g>
<!-- in_11&#45;&gt;g13 -->
<g id="edge20" class="edge">
<title>in_11&#45;&gt;g13</title>
<path fill="none" stroke="#bbbbbb" stroke-dasharray="5,2" d="M103.53,-92.89C116.93,-92.92 191.24,-93.15 251.82,-93.88 257.95,-93.95 264.28,-94.04 270.65,-94.13"/>
<polygon fill="#bbbbbb" stroke="#bbbbbb" points="270.63,-97.63 280.68,-94.28 270.74,-90.63 270.63,-97.63"/>
<text text-anchor="middle" x="235.32" y="-96.48" font-family="Helvetica,sans-Serif" font-size="8.00">s(91)</text>
</g>
<!-- in_12 -->
<g id="node18" class="node">
<title>in_12</title>
<ellipse fill="#bbbbbb" stroke="#bbbbbb" cx="100.41" cy="-60.88" rx="2.88" ry="2.88"/>
</g>
<!-- in_12&#45;&gt;g13 -->
<g id="edge21" class="edge">
<title>in_12&#45;&gt;g13</title>
<path fill="none" stroke="#bbbbbb" stroke-dasharray="5,2" d="M103.39,-61.14C117.25,-62.97 201.17,-74.06 270.54,-83.22"/>
<polygon fill="#bbbbbb" stroke="#bbbbbb" points="270.29,-86.72 280.66,-84.56 271.21,-79.78 270.29,-86.72"/>
<text text-anchor="middle" x="235.32" y="-83.48" font-family="Helvetica,sans-Serif" font-size="8.00">busy</text>
</g>
<!-- legend_comb -->
<g id="node19" class="node">
<title>legend_comb</title>
<path fill="#f4f4f4" stroke="#555555" d="M128.41,-705.88C128.41,-705.88 72.41,-705.88 72.41,-705.88 66.41,-705.88 60.41,-699.88 60.41,-693.88 60.41,-693.88 60.41,-681.88 60.41,-681.88 60.41,-675.88 66.41,-669.88 72.41,-669.88 72.41,-669.88 128.41,-669.88 128.41,-669.88 134.41,-669.88 140.41,-675.88 140.41,-681.88 140.41,-681.88 140.41,-693.88 140.41,-693.88 140.41,-699.88 134.41,-705.88 128.41,-705.88"/>
<text text-anchor="middle" x="100.41" y="-690.68" font-family="Helvetica,sans-Serif" font-size="9.00">combinational</text>
<text text-anchor="middle" x="100.41" y="-680.68" font-family="Helvetica,sans-Serif" font-size="9.00">gate</text>
</g>
<!-- legend_seq -->
<g id="node20" class="node">
<title>legend_seq</title>
<polygon fill="#dbe9f6" stroke="#2a5d8f" stroke-width="2" points="128.91,-651.88 71.91,-651.88 71.91,-615.88 128.91,-615.88 128.91,-651.88"/>
<text text-anchor="middle" x="100.41" y="-636.68" font-family="Helvetica,sans-Serif" font-size="9.00">flip&#45;flop /</text>
<text text-anchor="middle" x="100.41" y="-626.68" font-family="Helvetica,sans-Serif" font-size="9.00">latch</text>
</g>
<!-- legend_io -->
<g id="node21" class="node">
<title>legend_io</title>
<polygon fill="#d6ecff" stroke="#2a5d8f" points="142.9,-572.42 142.9,-587.34 118.01,-597.88 82.81,-597.88 57.92,-587.34 57.92,-572.42 82.81,-561.88 118.01,-561.88 142.9,-572.42"/>
<text text-anchor="middle" x="100.41" y="-577.68" font-family="Helvetica,sans-Serif" font-size="9.00">primary I/O</text>
</g>
<!-- legend_tie0 -->
<g id="node22" class="node">
<title>legend_tie0</title>
<ellipse fill="#e8e8e8" stroke="#8a8a8a" cx="100.41" cy="-533.88" rx="10" ry="10"/>
<text text-anchor="middle" x="100.41" y="-531.38" font-family="Helvetica,sans-Serif" font-size="10.00">0</text>
</g>
<!-- legend_tie1 -->
<g id="node23" class="node">
<title>legend_tie1</title>
<ellipse fill="#fff2cc" stroke="#bf9000" cx="100.41" cy="-495.88" rx="10" ry="10"/>
<text text-anchor="middle" x="100.41" y="-493.38" font-family="Helvetica,sans-Serif" font-size="10.00">1</text>
</g>
<!-- legend_tie_note -->
<g id="node24" class="node">
<title>legend_tie_note</title>
<text text-anchor="middle" x="100.41" y="-452.68" font-family="Helvetica,sans-Serif" font-size="9.00" fill="#555555">constant tie&#45;off,</text>
<text text-anchor="middle" x="100.41" y="-442.68" font-family="Helvetica,sans-Serif" font-size="9.00" fill="#555555">one stub per sink</text>
</g>
<!-- legend_net_a -->
<g id="node25" class="node">
<title>legend_net_a</title>
<ellipse fill="#777777" stroke="#777777" cx="100.41" cy="-411.88" rx="2.16" ry="2.16"/>
</g>
<!-- legend_net_b -->
<g id="node26" class="node">
<title>legend_net_b</title>
<ellipse fill="#777777" stroke="#777777" cx="367.4" cy="-427.88" rx="2.16" ry="2.16"/>
</g>
<!-- legend_net_a&#45;&gt;legend_net_b -->
<g id="edge1" class="edge">
<title>legend_net_a&#45;&gt;legend_net_b</title>
<path fill="none" stroke="#777777" d="M102.59,-411.95C119.17,-412.95 305.51,-424.2 354.6,-427.17"/>
<polygon fill="#777777" stroke="#777777" points="354.64,-430.68 364.83,-427.79 355.06,-423.69 354.64,-430.68"/>
<text text-anchor="middle" x="235.32" y="-422.68" font-family="Helvetica,sans-Serif" font-size="9.00">net</text>
</g>
</g>
</svg>
