<?xml version="1.0" encoding="UTF-8" standalone="no"?>
<!DOCTYPE svg PUBLIC "-//W3C//DTD SVG 1.1//EN"
 "http://www.w3.org/Graphics/SVG/1.1/DTD/svg11.dtd">
<!-- Generated by graphviz version 2.43.0 (0)
 -->
<!-- Title: present_sbox &#45; gate &#39;subs[0]&#39; (id 206), depth 1, both &#45; 7 gates Pages: 1 -->
<svg width="990pt" height="2092pt"
 viewBox="0.00 0.00 989.97 2092.00" xmlns="http://www.w3.org/2000/svg" xmlns:xlink="http://www.w3.org/1999/xlink">
<g id="graph0" class="graph" transform="scale(1 1) rotate(0) translate(4 2088)">
<title>present_sbox &#45; gate &#39;subs[0]&#39; (id 206), depth 1, both &#45; 7 gates</title>
<polygon fill="white" stroke="transparent" points="-4,4 -4,-2088 985.97,-2088 985.97,4 -4,4"/>
<text text-anchor="middle" x="490.99" y="-2067.2" font-family="Helvetica,sans-Serif" font-size="16.00">present_sbox &#45; gate &#39;subs[0]&#39; (id 206), depth 1, both &#45; 7 gates</text>
<g id="clust2" class="cluster">
<title>cluster_legend</title>
<path fill="#fcfcfc" stroke="#bbbbbb" d="M42,-1796C42,-1796 271.16,-1796 271.16,-1796 277.16,-1796 283.16,-1802 283.16,-1808 283.16,-1808 283.16,-2038 283.16,-2038 283.16,-2044 277.16,-2050 271.16,-2050 271.16,-2050 42,-2050 42,-2050 36,-2050 30,-2044 30,-2038 30,-2038 30,-1808 30,-1808 30,-1802 36,-1796 42,-1796"/>
<text text-anchor="middle" x="156.58" y="-2037.2" font-family="Helvetica,sans-Serif" font-size="11.00">legend</text>
</g>
<!-- g206 -->
<g id="node1" class="node">
<title>g206</title>
<path fill="#f4f4f4" stroke="#555555" d="M496,-220.5C496,-220.5 407,-220.5 407,-220.5 401,-220.5 395,-214.5 395,-208.5 395,-208.5 395,-191.5 395,-191.5 395,-185.5 401,-179.5 407,-179.5 407,-179.5 496,-179.5 496,-179.5 502,-179.5 508,-185.5 508,-191.5 508,-191.5 508,-208.5 508,-208.5 508,-214.5 502,-220.5 496,-220.5"/>
<text text-anchor="middle" x="451.5" y="-208.5" font-family="Helvetica,sans-Serif" font-size="10.00">subs[0]</text>
<text text-anchor="middle" x="451.5" y="-197.5" font-family="Helvetica,sans-Serif" font-size="10.00">[tennm_lcell_comb]</text>
<text text-anchor="middle" x="451.5" y="-186.5" font-family="Helvetica,sans-Serif" font-size="10.00">id 206</text>
</g>
<!-- g70 -->
<g id="node2" class="node">
<title>g70</title>
<polygon fill="#d6ecff" stroke="#2a5d8f" points="807.96,-1388.05 807.96,-1413.95 757.3,-1432.26 685.67,-1432.26 635.01,-1413.95 635.01,-1388.05 685.67,-1369.74 757.3,-1369.74 807.96,-1388.05"/>
<text text-anchor="middle" x="721.49" y="-1409.5" font-family="Helvetica,sans-Serif" font-size="10.00">i586~0</text>
<text text-anchor="middle" x="721.49" y="-1398.5" font-family="Helvetica,sans-Serif" font-size="10.00">[tennm_lcell_comb]</text>
<text text-anchor="middle" x="721.49" y="-1387.5" font-family="Helvetica,sans-Serif" font-size="10.00">id 70</text>
</g>
<!-- g206&#45;&gt;g70 -->
<g id="edge2" class="edge">
<title>g206&#45;&gt;g70</title>
<path fill="none" stroke="#777777" d="M457.15,-220.85C488.44,-361.08 668.32,-1167.21 711.28,-1359.72"/>
<polygon fill="#777777" stroke="#777777" points="707.91,-1360.72 713.51,-1369.71 714.74,-1359.19 707.91,-1360.72"/>
<text text-anchor="middle" x="571.5" y="-920.6" font-family="Helvetica,sans-Serif" font-size="8.00">subs(0)</text>
<text text-anchor="middle" x="571.5" y="-911.6" font-family="Helvetica,sans-Serif" font-size="8.00">combout &#45;&gt; dataf</text>
</g>
<!-- g1 -->
<g id="node6" class="node">
<title>g1</title>
<polygon fill="#dbe9f6" stroke="#2a5d8f" stroke-width="2" points="981.97,-1663.5 913.97,-1663.5 913.97,-1622.5 981.97,-1622.5 981.97,-1663.5"/>
<text text-anchor="middle" x="947.97" y="-1651.5" font-family="Helvetica,sans-Serif" font-size="10.00">state[0]</text>
<text text-anchor="middle" x="947.97" y="-1640.5" font-family="Helvetica,sans-Serif" font-size="10.00">[tennm_ff]</text>
<text text-anchor="middle" x="947.97" y="-1629.5" font-family="Helvetica,sans-Serif" font-size="10.00">id 1</text>
</g>
<!-- g70&#45;&gt;g1 -->
<g id="edge3" class="edge">
<title>g70&#45;&gt;g1</title>
<path fill="none" stroke="#777777" d="M776.18,-1425.65C814.08,-1445.41 863.68,-1476.36 895.97,-1516 919.13,-1544.42 932.9,-1584.71 940.18,-1612.25"/>
<polygon fill="#777777" stroke="#777777" points="936.83,-1613.28 942.66,-1622.12 943.62,-1611.57 936.83,-1613.28"/>
<text text-anchor="middle" x="860.97" y="-1527.6" font-family="Helvetica,sans-Serif" font-size="8.00">i586~0_combout</text>
<text text-anchor="middle" x="860.97" y="-1518.6" font-family="Helvetica,sans-Serif" font-size="8.00">combout &#45;&gt; d</text>
</g>
<!-- g3 -->
<g id="node3" class="node">
<title>g3</title>
<polygon fill="#dbe9f6" stroke="#2a5d8f" stroke-width="2" points="307,-1103.5 239,-1103.5 239,-1062.5 307,-1062.5 307,-1103.5"/>
<text text-anchor="middle" x="273" y="-1091.5" font-family="Helvetica,sans-Serif" font-size="10.00">state[2]</text>
<text text-anchor="middle" x="273" y="-1080.5" font-family="Helvetica,sans-Serif" font-size="10.00">[tennm_ff]</text>
<text text-anchor="middle" x="273" y="-1069.5" font-family="Helvetica,sans-Serif" font-size="10.00">id 3</text>
</g>
<!-- g3&#45;&gt;g206 -->
<g id="edge4" class="edge">
<title>g3&#45;&gt;g206</title>
<path fill="none" stroke="#1a73e8" d="M278.59,-1062.06C293.38,-994.44 340.92,-775.68 377,-594 403.83,-458.88 433.12,-297.11 445.02,-230.72"/>
<polygon fill="#1a73e8" stroke="#1a73e8" points="448.52,-231 446.84,-220.54 441.63,-229.77 448.52,-231"/>
<text text-anchor="middle" x="351" y="-846.6" font-family="Helvetica,sans-Serif" font-size="8.00">ciphertext(2)</text>
<text text-anchor="middle" x="351" y="-837.6" font-family="Helvetica,sans-Serif" font-size="8.00">q &#45;&gt; datac</text>
</g>
<!-- g2 -->
<g id="node4" class="node">
<title>g2</title>
<polygon fill="#dbe9f6" stroke="#2a5d8f" stroke-width="2" points="307,-747.5 239,-747.5 239,-706.5 307,-706.5 307,-747.5"/>
<text text-anchor="middle" x="273" y="-735.5" font-family="Helvetica,sans-Serif" font-size="10.00">state[1]</text>
<text text-anchor="middle" x="273" y="-724.5" font-family="Helvetica,sans-Serif" font-size="10.00">[tennm_ff]</text>
<text text-anchor="middle" x="273" y="-713.5" font-family="Helvetica,sans-Serif" font-size="10.00">id 2</text>
</g>
<!-- g2&#45;&gt;g206 -->
<g id="edge5" class="edge">
<title>g2&#45;&gt;g206</title>
<path fill="none" stroke="#1a73e8" d="M280.92,-706.34C308.16,-625 408.1,-326.59 440.38,-230.23"/>
<polygon fill="#1a73e8" stroke="#1a73e8" points="443.77,-231.11 443.63,-220.52 437.13,-228.89 443.77,-231.11"/>
<text text-anchor="middle" x="351" y="-583.6" font-family="Helvetica,sans-Serif" font-size="8.00">ciphertext(1)</text>
<text text-anchor="middle" x="351" y="-574.6" font-family="Helvetica,sans-Serif" font-size="8.00">q &#45;&gt; datab</text>
</g>
<!-- g4 -->
<g id="node5" class="node">
<title>g4</title>
<polygon fill="#dbe9f6" stroke="#2a5d8f" stroke-width="2" points="307,-391.5 239,-391.5 239,-350.5 307,-350.5 307,-391.5"/>
<text text-anchor="middle" x="273" y="-379.5" font-family="Helvetica,sans-Serif" font-size="10.00">state[3]</text>
<text text-anchor="middle" x="273" y="-368.5" font-family="Helvetica,sans-Serif" font-size="10.00">[tennm_ff]</text>
<text text-anchor="middle" x="273" y="-357.5" font-family="Helvetica,sans-Serif" font-size="10.00">id 4</text>
</g>
<!-- g4&#45;&gt;g206 -->
<g id="edge6" class="edge">
<title>g4&#45;&gt;g206</title>
<path fill="none" stroke="#1a73e8" d="M295.29,-350.37C326.83,-319.82 386.05,-262.44 421.52,-228.08"/>
<polygon fill="#1a73e8" stroke="#1a73e8" points="424.39,-230.17 429.13,-220.7 419.52,-225.14 424.39,-230.17"/>
<text text-anchor="middle" x="351" y="-332.6" font-family="Helvetica,sans-Serif" font-size="8.00">ciphertext(3)</text>
<text text-anchor="middle" x="351" y="-323.6" font-family="Helvetica,sans-Serif" font-size="8.00">q &#45;&gt; datad</text>
</g>
<!-- g1&#45;&gt;g206 -->
<g id="edge7" class="edge">
<title>g1&#45;&gt;g206</title>
<path fill="none" stroke="#1a73e8" d="M941.93,-1622.15C914.67,-1510.49 780.09,-972.6 617,-551 569.74,-428.82 499.24,-289.5 468.17,-229.75"/>
<polygon fill="#1a73e8" stroke="#1a73e8" points="471.08,-227.78 463.35,-220.53 464.88,-231.01 471.08,-227.78"/>
<text text-anchor="middle" x="721.49" y="-1136.6" font-family="Helvetica,sans-Serif" font-size="8.00">ciphertext(0)</text>
<text text-anchor="middle" x="721.49" y="-1127.6" font-family="Helvetica,sans-Serif" font-size="8.00">q &#45;&gt; dataa</text>
</g>
<!-- in_1 -->
<g id="node7" class="node">
<title>in_1</title>
<ellipse fill="#bbbbbb" stroke="#bbbbbb" cx="451.5" cy="-1511" rx="2.88" ry="2.88"/>
</g>
<!-- in_1&#45;&gt;g70 -->
<g id="edge34" class="edge">
<title>in_1&#45;&gt;g70</title>
<path fill="none" stroke="#bbbbbb" stroke-dasharray="5,2" d="M454.53,-1510.7C468.68,-1508.55 553.68,-1494.86 617,-1467 635.77,-1458.74 655.05,-1447.37 671.8,-1436.38"/>
<polygon fill="#bbbbbb" stroke="#bbbbbb" points="673.95,-1439.16 680.32,-1430.7 670.06,-1433.34 673.95,-1439.16"/>
<text text-anchor="middle" x="571.5" y="-1498.6" font-family="Helvetica,sans-Serif" font-size="8.00">knext[15]~0_combout</text>
</g>
<!-- in_2 -->
<g id="node8" class="node">
<title>in_2</title>
<ellipse fill="#bbbbbb" stroke="#bbbbbb" cx="451.5" cy="-1466" rx="2.88" ry="2.88"/>
</g>
<!-- in_2&#45;&gt;g70 -->
<g id="edge35" class="edge">
<title>in_2&#45;&gt;g70</title>
<path fill="none" stroke="#bbbbbb" stroke-dasharray="5,2" d="M454.47,-1465.71C468.22,-1463.64 551.04,-1450.87 617,-1434 627.11,-1431.41 637.68,-1428.41 648.04,-1425.28"/>
<polygon fill="#bbbbbb" stroke="#bbbbbb" points="649.36,-1428.53 657.89,-1422.25 647.3,-1421.84 649.36,-1428.53"/>
<text text-anchor="middle" x="571.5" y="-1456.6" font-family="Helvetica,sans-Serif" font-size="8.00">busy</text>
</g>
<!-- in_3 -->
<g id="node9" class="node">
<title>in_3</title>
<ellipse fill="#bbbbbb" stroke="#bbbbbb" cx="85.5" cy="-1269" rx="2.88" ry="2.88"/>
</g>
<!-- in_3&#45;&gt;g3 -->
<g id="edge36" class="edge">
<title>in_3&#45;&gt;g3</title>
<path fill="none" stroke="#bbbbbb" stroke-dasharray="5,2" d="M88.39,-1269.12C101.52,-1269.86 179.68,-1272.48 221,-1234 254.71,-1202.61 266.15,-1148.18 270.02,-1113.96"/>
<polygon fill="#bbbbbb" stroke="#bbbbbb" points="273.54,-1113.91 271.03,-1103.62 266.57,-1113.23 273.54,-1113.91"/>
<text text-anchor="middle" x="186" y="-1267.6" font-family="Helvetica,sans-Serif" font-size="8.00">i586~3_combout</text>
</g>
<!-- in_4 -->
<g id="node10" class="node">
<title>in_4</title>
<ellipse fill="#bbbbbb" stroke="#bbbbbb" cx="85.5" cy="-1224" rx="2.88" ry="2.88"/>
</g>
<!-- in_4&#45;&gt;g3 -->
<g id="edge39" class="edge">
<title>in_4&#45;&gt;g3</title>
<path fill="none" stroke="#bbbbbb" stroke-dasharray="5,2" d="M88.69,-1224.14C102.44,-1224.87 177.82,-1227.16 221,-1192 245.24,-1172.26 258.57,-1138.36 265.46,-1113.6"/>
<polygon fill="#bbbbbb" stroke="#bbbbbb" points="268.92,-1114.17 268.03,-1103.61 262.15,-1112.42 268.92,-1114.17"/>
<text text-anchor="middle" x="186" y="-1223.6" font-family="Helvetica,sans-Serif" font-size="8.00">i586~1_combout</text>
</g>
<!-- in_5 -->
<g id="node11" class="node">
<title>in_5</title>
<ellipse fill="#bbbbbb" stroke="#bbbbbb" cx="85.5" cy="-913" rx="2.88" ry="2.88"/>
</g>
<!-- in_5&#45;&gt;g2 -->
<g id="edge41" class="edge">
<title>in_5&#45;&gt;g2</title>
<path fill="none" stroke="#bbbbbb" stroke-dasharray="5,2" d="M88.39,-913.12C101.52,-913.86 179.68,-916.48 221,-878 254.71,-846.61 266.15,-792.18 270.02,-757.96"/>
<polygon fill="#bbbbbb" stroke="#bbbbbb" points="273.54,-757.91 271.03,-747.62 266.57,-757.23 273.54,-757.91"/>
<text text-anchor="middle" x="186" y="-911.6" font-family="Helvetica,sans-Serif" font-size="8.00">i586~2_combout</text>
</g>
<!-- in_6 -->
<g id="node12" class="node">
<title>in_6</title>
<ellipse fill="#bbbbbb" stroke="#bbbbbb" cx="85.5" cy="-868" rx="2.88" ry="2.88"/>
</g>
<!-- in_6&#45;&gt;g2 -->
<g id="edge44" class="edge">
<title>in_6&#45;&gt;g2</title>
<path fill="none" stroke="#bbbbbb" stroke-dasharray="5,2" d="M88.69,-868.14C102.44,-868.87 177.82,-871.16 221,-836 245.24,-816.26 258.57,-782.36 265.46,-757.6"/>
<polygon fill="#bbbbbb" stroke="#bbbbbb" points="268.92,-758.17 268.03,-747.61 262.15,-756.42 268.92,-758.17"/>
<text text-anchor="middle" x="186" y="-867.6" font-family="Helvetica,sans-Serif" font-size="8.00">i586~1_combout</text>
</g>
<!-- in_7 -->
<g id="node13" class="node">
<title>in_7</title>
<ellipse fill="#bbbbbb" stroke="#bbbbbb" cx="85.5" cy="-557" rx="2.88" ry="2.88"/>
</g>
<!-- in_7&#45;&gt;g4 -->
<g id="edge46" class="edge">
<title>in_7&#45;&gt;g4</title>
<path fill="none" stroke="#bbbbbb" stroke-dasharray="5,2" d="M88.39,-557.12C101.52,-557.86 179.68,-560.48 221,-522 254.71,-490.61 266.15,-436.18 270.02,-401.96"/>
<polygon fill="#bbbbbb" stroke="#bbbbbb" points="273.54,-401.91 271.03,-391.62 266.57,-401.23 273.54,-401.91"/>
<text text-anchor="middle" x="186" y="-555.6" font-family="Helvetica,sans-Serif" font-size="8.00">i586~4_combout</text>
</g>
<!-- in_8 -->
<g id="node14" class="node">
<title>in_8</title>
<ellipse fill="#bbbbbb" stroke="#bbbbbb" cx="85.5" cy="-512" rx="2.88" ry="2.88"/>
</g>
<!-- in_8&#45;&gt;g4 -->
<g id="edge49" class="edge">
<title>in_8&#45;&gt;g4</title>
<path fill="none" stroke="#bbbbbb" stroke-dasharray="5,2" d="M88.69,-512.14C102.44,-512.87 177.82,-515.16 221,-480 245.24,-460.26 258.57,-426.36 265.46,-401.6"/>
<polygon fill="#bbbbbb" stroke="#bbbbbb" points="268.92,-402.17 268.03,-391.61 262.15,-400.42 268.92,-402.17"/>
<text text-anchor="middle" x="186" y="-511.6" font-family="Helvetica,sans-Serif" font-size="8.00">i586~1_combout</text>
</g>
<!-- in_9 -->
<g id="node15" class="node">
<title>in_9</title>
<ellipse fill="#bbbbbb" stroke="#bbbbbb" cx="721.49" cy="-1822" rx="2.88" ry="2.88"/>
</g>
<!-- in_9&#45;&gt;g1 -->
<g id="edge53" class="edge">
<title>in_9&#45;&gt;g1</title>
<path fill="none" stroke="#bbbbbb" stroke-dasharray="5,2" d="M724.49,-1822.31C739.97,-1824.55 841.14,-1837.09 895.97,-1790 930,-1760.78 941.34,-1707.63 945.11,-1673.88"/>
<polygon fill="#bbbbbb" stroke="#bbbbbb" points="948.62,-1673.95 946.09,-1663.66 941.65,-1673.28 948.62,-1673.95"/>
<text text-anchor="middle" x="860.97" y="-1822.6" font-family="Helvetica,sans-Serif" font-size="8.00">i586~1_combout</text>
</g>
<!-- tie0_1 -->
<g id="node16" class="node">
<title>tie0_1</title>
<g id="a_node16"><a xlink:title="constant 0 from global_gnd [HAL_GND], net &#39;0&#39;">
<ellipse fill="#e8e8e8" stroke="#8a8a8a" cx="10" cy="-1776" rx="10" ry="10"/>
<text text-anchor="middle" x="10" y="-1773.5" font-family="Helvetica,sans-Serif" font-size="10.00">0</text>
</a>
</g>
</g>
<!-- tie0_1&#45;&gt;g1 -->
<g id="edge8" class="edge">
<title>tie0_1&#45;&gt;g1</title>
<path fill="none" stroke="#8a8a8a" d="M20.06,-1776C45.84,-1776 121.86,-1776 185,-1776 185,-1776 185,-1776 722.49,-1776 802.98,-1776 832.31,-1773.25 895.97,-1724 913.16,-1710.7 926.1,-1689.85 934.64,-1672.64"/>
<polygon fill="#8a8a8a" stroke="#8a8a8a" points="937.84,-1674.05 938.93,-1663.52 931.51,-1671.07 937.84,-1674.05"/>
</g>
<!-- tie0_2 -->
<g id="node17" class="node">
<title>tie0_2</title>
<g id="a_node17"><a xlink:title="constant 0 from global_gnd [HAL_GND], net &#39;0&#39;">
<ellipse fill="#e8e8e8" stroke="#8a8a8a" cx="10" cy="-1738" rx="10" ry="10"/>
<text text-anchor="middle" x="10" y="-1735.5" font-family="Helvetica,sans-Serif" font-size="10.00">0</text>
</a>
</g>
</g>
<!-- tie0_2&#45;&gt;g1 -->
<g id="edge9" class="edge">
<title>tie0_2&#45;&gt;g1</title>
<path fill="none" stroke="#8a8a8a" d="M20.06,-1738C45.84,-1738 121.86,-1738 185,-1738 185,-1738 185,-1738 722.49,-1738 802.14,-1738 826.63,-1732.21 895.97,-1693 906.05,-1687.3 915.57,-1679.1 923.59,-1670.99"/>
<polygon fill="#8a8a8a" stroke="#8a8a8a" points="926.2,-1673.32 930.5,-1663.64 921.1,-1668.52 926.2,-1673.32"/>
</g>
<!-- tie0_3 -->
<g id="node18" class="node">
<title>tie0_3</title>
<g id="a_node18"><a xlink:title="constant 0 from global_gnd [HAL_GND], net &#39;0&#39;">
<ellipse fill="#e8e8e8" stroke="#8a8a8a" cx="10" cy="-1700" rx="10" ry="10"/>
<text text-anchor="middle" x="10" y="-1697.5" font-family="Helvetica,sans-Serif" font-size="10.00">0</text>
</a>
</g>
</g>
<!-- tie0_3&#45;&gt;g1 -->
<g id="edge10" class="edge">
<title>tie0_3&#45;&gt;g1</title>
<path fill="none" stroke="#8a8a8a" d="M20.06,-1700C45.84,-1700 121.86,-1700 185,-1700 185,-1700 185,-1700 722.49,-1700 800.89,-1700 821.52,-1692.6 895.97,-1668 898.74,-1667.09 901.54,-1666.05 904.34,-1664.93"/>
<polygon fill="#8a8a8a" stroke="#8a8a8a" points="905.97,-1668.04 913.78,-1660.88 903.21,-1661.61 905.97,-1668.04"/>
</g>
<!-- tie0_4 -->
<g id="node19" class="node">
<title>tie0_4</title>
<g id="a_node19"><a xlink:title="constant 0 from global_gnd [HAL_GND], net &#39;0&#39;">
<ellipse fill="#e8e8e8" stroke="#8a8a8a" cx="10" cy="-1662" rx="10" ry="10"/>
<text text-anchor="middle" x="10" y="-1659.5" font-family="Helvetica,sans-Serif" font-size="10.00">0</text>
</a>
</g>
</g>
<!-- tie0_4&#45;&gt;g1 -->
<g id="edge11" class="edge">
<title>tie0_4&#45;&gt;g1</title>
<path fill="none" stroke="#8a8a8a" d="M20.06,-1662C45.84,-1662 121.86,-1662 185,-1662 185,-1662 185,-1662 722.49,-1662 785.81,-1662 858.81,-1654.4 903.94,-1648.82"/>
<polygon fill="#8a8a8a" stroke="#8a8a8a" points="904.47,-1652.28 913.96,-1647.55 903.6,-1645.33 904.47,-1652.28"/>
</g>
<!-- tie0_5 -->
<g id="node20" class="node">
<title>tie0_5</title>
<g id="a_node20"><a xlink:title="constant 0 from global_gnd [HAL_GND], net &#39;0&#39;">
<ellipse fill="#e8e8e8" stroke="#8a8a8a" cx="10" cy="-822" rx="10" ry="10"/>
<text text-anchor="middle" x="10" y="-819.5" font-family="Helvetica,sans-Serif" font-size="10.00">0</text>
</a>
</g>
</g>
<!-- tie0_5&#45;&gt;g2 -->
<g id="edge12" class="edge">
<title>tie0_5&#45;&gt;g2</title>
<path fill="none" stroke="#8a8a8a" d="M20.34,-821.3C50.83,-818.69 149.6,-807.72 221,-771 229.4,-766.68 237.58,-760.7 244.84,-754.55"/>
<polygon fill="#8a8a8a" stroke="#8a8a8a" points="247.19,-757.14 252.32,-747.87 242.53,-751.92 247.19,-757.14"/>
</g>
<!-- tie0_6 -->
<g id="node21" class="node">
<title>tie0_6</title>
<g id="a_node21"><a xlink:title="constant 0 from global_gnd [HAL_GND], net &#39;0&#39;">
<ellipse fill="#e8e8e8" stroke="#8a8a8a" cx="10" cy="-784" rx="10" ry="10"/>
<text text-anchor="middle" x="10" y="-781.5" font-family="Helvetica,sans-Serif" font-size="10.00">0</text>
</a>
</g>
</g>
<!-- tie0_6&#45;&gt;g2 -->
<g id="edge13" class="edge">
<title>tie0_6&#45;&gt;g2</title>
<path fill="none" stroke="#8a8a8a" d="M20.38,-783.14C50.19,-780.24 145.28,-769.79 221,-748 223.76,-747.21 226.57,-746.31 229.39,-745.35"/>
<polygon fill="#8a8a8a" stroke="#8a8a8a" points="230.72,-748.59 238.91,-741.86 228.31,-742.01 230.72,-748.59"/>
</g>
<!-- tie0_7 -->
<g id="node22" class="node">
<title>tie0_7</title>
<g id="a_node22"><a xlink:title="constant 0 from global_gnd [HAL_GND], net &#39;0&#39;">
<ellipse fill="#e8e8e8" stroke="#8a8a8a" cx="10" cy="-746" rx="10" ry="10"/>
<text text-anchor="middle" x="10" y="-743.5" font-family="Helvetica,sans-Serif" font-size="10.00">0</text>
</a>
</g>
</g>
<!-- tie0_7&#45;&gt;g2 -->
<g id="edge14" class="edge">
<title>tie0_7&#45;&gt;g2</title>
<path fill="none" stroke="#8a8a8a" d="M19.98,-745.35C52.5,-742.98 165.48,-734.75 228.56,-730.16"/>
<polygon fill="#8a8a8a" stroke="#8a8a8a" points="228.89,-733.65 238.61,-729.43 228.38,-726.67 228.89,-733.65"/>
</g>
<!-- tie0_8 -->
<g id="node23" class="node">
<title>tie0_8</title>
<g id="a_node23"><a xlink:title="constant 0 from global_gnd [HAL_GND], net &#39;0&#39;">
<ellipse fill="#e8e8e8" stroke="#8a8a8a" cx="10" cy="-708" rx="10" ry="10"/>
<text text-anchor="middle" x="10" y="-705.5" font-family="Helvetica,sans-Serif" font-size="10.00">0</text>
</a>
</g>
</g>
<!-- tie0_8&#45;&gt;g2 -->
<g id="edge15" class="edge">
<title>tie0_8&#45;&gt;g2</title>
<path fill="none" stroke="#8a8a8a" d="M19.98,-708.65C52.5,-711.02 165.48,-719.25 228.56,-723.84"/>
<polygon fill="#8a8a8a" stroke="#8a8a8a" points="228.38,-727.33 238.61,-724.57 228.89,-720.35 228.38,-727.33"/>
</g>
<!-- tie0_9 -->
<g id="node24" class="node">
<title>tie0_9</title>
<g id="a_node24"><a xlink:title="constant 0 from global_gnd [HAL_GND], net &#39;0&#39;">
<ellipse fill="#e8e8e8" stroke="#8a8a8a" cx="10" cy="-1178" rx="10" ry="10"/>
<text text-anchor="middle" x="10" y="-1175.5" font-family="Helvetica,sans-Serif" font-size="10.00">0</text>
</a>
</g>
</g>
<!-- tie0_9&#45;&gt;g3 -->
<g id="edge16" class="edge">
<title>tie0_9&#45;&gt;g3</title>
<path fill="none" stroke="#8a8a8a" d="M20.34,-1177.3C50.83,-1174.69 149.6,-1163.72 221,-1127 229.4,-1122.68 237.58,-1116.7 244.84,-1110.55"/>
<polygon fill="#8a8a8a" stroke="#8a8a8a" points="247.19,-1113.14 252.32,-1103.87 242.53,-1107.92 247.19,-1113.14"/>
</g>
<!-- tie0_10 -->
<g id="node25" class="node">
<title>tie0_10</title>
<g id="a_node25"><a xlink:title="constant 0 from global_gnd [HAL_GND], net &#39;0&#39;">
<ellipse fill="#e8e8e8" stroke="#8a8a8a" cx="10" cy="-1140" rx="10" ry="10"/>
<text text-anchor="middle" x="10" y="-1137.5" font-family="Helvetica,sans-Serif" font-size="10.00">0</text>
</a>
</g>
</g>
<!-- tie0_10&#45;&gt;g3 -->
<g id="edge17" class="edge">
<title>tie0_10&#45;&gt;g3</title>
<path fill="none" stroke="#8a8a8a" d="M20.38,-1139.14C50.19,-1136.24 145.28,-1125.79 221,-1104 223.76,-1103.21 226.57,-1102.31 229.39,-1101.35"/>
<polygon fill="#8a8a8a" stroke="#8a8a8a" points="230.72,-1104.59 238.91,-1097.86 228.31,-1098.01 230.72,-1104.59"/>
</g>
<!-- tie0_11 -->
<g id="node26" class="node">
<title>tie0_11</title>
<g id="a_node26"><a xlink:title="constant 0 from global_gnd [HAL_GND], net &#39;0&#39;">
<ellipse fill="#e8e8e8" stroke="#8a8a8a" cx="10" cy="-1102" rx="10" ry="10"/>
<text text-anchor="middle" x="10" y="-1099.5" font-family="Helvetica,sans-Serif" font-size="10.00">0</text>
</a>
</g>
</g>
<!-- tie0_11&#45;&gt;g3 -->
<g id="edge18" class="edge">
<title>tie0_11&#45;&gt;g3</title>
<path fill="none" stroke="#8a8a8a" d="M19.98,-1101.35C52.5,-1098.98 165.48,-1090.75 228.56,-1086.16"/>
<polygon fill="#8a8a8a" stroke="#8a8a8a" points="228.89,-1089.65 238.61,-1085.43 228.38,-1082.67 228.89,-1089.65"/>
</g>
<!-- tie0_12 -->
<g id="node27" class="node">
<title>tie0_12</title>
<g id="a_node27"><a xlink:title="constant 0 from global_gnd [HAL_GND], net &#39;0&#39;">
<ellipse fill="#e8e8e8" stroke="#8a8a8a" cx="10" cy="-1064" rx="10" ry="10"/>
<text text-anchor="middle" x="10" y="-1061.5" font-family="Helvetica,sans-Serif" font-size="10.00">0</text>
</a>
</g>
</g>
<!-- tie0_12&#45;&gt;g3 -->
<g id="edge19" class="edge">
<title>tie0_12&#45;&gt;g3</title>
<path fill="none" stroke="#8a8a8a" d="M19.98,-1064.65C52.5,-1067.02 165.48,-1075.25 228.56,-1079.84"/>
<polygon fill="#8a8a8a" stroke="#8a8a8a" points="228.38,-1083.33 238.61,-1080.57 228.89,-1076.35 228.38,-1083.33"/>
</g>
<!-- tie0_13 -->
<g id="node28" class="node">
<title>tie0_13</title>
<g id="a_node28"><a xlink:title="constant 0 from global_gnd [HAL_GND], net &#39;0&#39;">
<ellipse fill="#e8e8e8" stroke="#8a8a8a" cx="10" cy="-466" rx="10" ry="10"/>
<text text-anchor="middle" x="10" y="-463.5" font-family="Helvetica,sans-Serif" font-size="10.00">0</text>
</a>
</g>
</g>
<!-- tie0_13&#45;&gt;g4 -->
<g id="edge20" class="edge">
<title>tie0_13&#45;&gt;g4</title>
<path fill="none" stroke="#8a8a8a" d="M20.34,-465.3C50.83,-462.69 149.6,-451.72 221,-415 229.4,-410.68 237.58,-404.7 244.84,-398.55"/>
<polygon fill="#8a8a8a" stroke="#8a8a8a" points="247.19,-401.14 252.32,-391.87 242.53,-395.92 247.19,-401.14"/>
</g>
<!-- tie0_14 -->
<g id="node29" class="node">
<title>tie0_14</title>
<g id="a_node29"><a xlink:title="constant 0 from global_gnd [HAL_GND], net &#39;0&#39;">
<ellipse fill="#e8e8e8" stroke="#8a8a8a" cx="10" cy="-428" rx="10" ry="10"/>
<text text-anchor="middle" x="10" y="-425.5" font-family="Helvetica,sans-Serif" font-size="10.00">0</text>
</a>
</g>
</g>
<!-- tie0_14&#45;&gt;g4 -->
<g id="edge21" class="edge">
<title>tie0_14&#45;&gt;g4</title>
<path fill="none" stroke="#8a8a8a" d="M20.38,-427.14C50.19,-424.24 145.28,-413.79 221,-392 223.76,-391.21 226.57,-390.31 229.39,-389.35"/>
<polygon fill="#8a8a8a" stroke="#8a8a8a" points="230.72,-392.59 238.91,-385.86 228.31,-386.01 230.72,-392.59"/>
</g>
<!-- tie0_15 -->
<g id="node30" class="node">
<title>tie0_15</title>
<g id="a_node30"><a xlink:title="constant 0 from global_gnd [HAL_GND], net &#39;0&#39;">
<ellipse fill="#e8e8e8" stroke="#8a8a8a" cx="10" cy="-390" rx="10" ry="10"/>
<text text-anchor="middle" x="10" y="-387.5" font-family="Helvetica,sans-Serif" font-size="10.00">0</text>
</a>
</g>
</g>
<!-- tie0_15&#45;&gt;g4 -->
<g id="edge22" class="edge">
<title>tie0_15&#45;&gt;g4</title>
<path fill="none" stroke="#8a8a8a" d="M19.98,-389.35C52.5,-386.98 165.48,-378.75 228.56,-374.16"/>
<polygon fill="#8a8a8a" stroke="#8a8a8a" points="228.89,-377.65 238.61,-373.43 228.38,-370.67 228.89,-377.65"/>
</g>
<!-- tie0_16 -->
<g id="node31" class="node">
<title>tie0_16</title>
<g id="a_node31"><a xlink:title="constant 0 from global_gnd [HAL_GND], net &#39;0&#39;">
<ellipse fill="#e8e8e8" stroke="#8a8a8a" cx="10" cy="-352" rx="10" ry="10"/>
<text text-anchor="middle" x="10" y="-349.5" font-family="Helvetica,sans-Serif" font-size="10.00">0</text>
</a>
</g>
</g>
<!-- tie0_16&#45;&gt;g4 -->
<g id="edge23" class="edge">
<title>tie0_16&#45;&gt;g4</title>
<path fill="none" stroke="#8a8a8a" d="M19.98,-352.65C52.5,-355.02 165.48,-363.25 228.56,-367.84"/>
<polygon fill="#8a8a8a" stroke="#8a8a8a" points="228.38,-371.33 238.61,-368.57 228.89,-364.35 228.38,-371.33"/>
</g>
<!-- tie0_17 -->
<g id="node32" class="node">
<title>tie0_17</title>
<g id="a_node32"><a xlink:title="constant 0 from global_gnd [HAL_GND], net &#39;0&#39;">
<ellipse fill="#e8e8e8" stroke="#8a8a8a" cx="10" cy="-1420" rx="10" ry="10"/>
<text text-anchor="middle" x="10" y="-1417.5" font-family="Helvetica,sans-Serif" font-size="10.00">0</text>
</a>
</g>
</g>
<!-- tie0_17&#45;&gt;g70 -->
<g id="edge24" class="edge">
<title>tie0_17&#45;&gt;g70</title>
<path fill="none" stroke="#8a8a8a" d="M20.06,-1420C45.84,-1420 121.86,-1420 185,-1420 185,-1420 185,-1420 452.5,-1420 509.78,-1420 573.78,-1415.63 624.87,-1411.08"/>
<polygon fill="#8a8a8a" stroke="#8a8a8a" points="625.26,-1414.56 634.91,-1410.17 624.63,-1407.58 625.26,-1414.56"/>
</g>
<!-- tie0_18 -->
<g id="node33" class="node">
<title>tie0_18</title>
<g id="a_node33"><a xlink:title="constant 0 from global_gnd [HAL_GND], net &#39;0&#39;">
<ellipse fill="#e8e8e8" stroke="#8a8a8a" cx="10" cy="-1382" rx="10" ry="10"/>
<text text-anchor="middle" x="10" y="-1379.5" font-family="Helvetica,sans-Serif" font-size="10.00">0</text>
</a>
</g>
</g>
<!-- tie0_18&#45;&gt;g70 -->
<g id="edge25" class="edge">
<title>tie0_18&#45;&gt;g70</title>
<path fill="none" stroke="#8a8a8a" d="M20.06,-1382C45.84,-1382 121.86,-1382 185,-1382 185,-1382 185,-1382 452.5,-1382 509.78,-1382 573.78,-1386.37 624.87,-1390.92"/>
<polygon fill="#8a8a8a" stroke="#8a8a8a" points="624.63,-1394.42 634.91,-1391.83 625.26,-1387.44 624.63,-1394.42"/>
</g>
<!-- tie0_19 -->
<g id="node34" class="node">
<title>tie0_19</title>
<g id="a_node34"><a xlink:title="constant 0 from global_gnd [HAL_GND], net &#39;0&#39;">
<ellipse fill="#e8e8e8" stroke="#8a8a8a" cx="10" cy="-1344" rx="10" ry="10"/>
<text text-anchor="middle" x="10" y="-1341.5" font-family="Helvetica,sans-Serif" font-size="10.00">0</text>
</a>
</g>
</g>
<!-- tie0_19&#45;&gt;g70 -->
<g id="edge26" class="edge">
<title>tie0_19&#45;&gt;g70</title>
<path fill="none" stroke="#8a8a8a" d="M20.06,-1344C45.84,-1344 121.86,-1344 185,-1344 185,-1344 185,-1344 452.5,-1344 519.78,-1344 594.52,-1361.4 647.95,-1376.97"/>
<polygon fill="#8a8a8a" stroke="#8a8a8a" points="647.08,-1380.37 657.67,-1379.86 649.07,-1373.66 647.08,-1380.37"/>
</g>
<!-- tie0_20 -->
<g id="node35" class="node">
<title>tie0_20</title>
<g id="a_node35"><a xlink:title="constant 0 from global_gnd [HAL_GND], net &#39;0&#39;">
<ellipse fill="#e8e8e8" stroke="#8a8a8a" cx="10" cy="-1306" rx="10" ry="10"/>
<text text-anchor="middle" x="10" y="-1303.5" font-family="Helvetica,sans-Serif" font-size="10.00">0</text>
</a>
</g>
</g>
<!-- tie0_20&#45;&gt;g70 -->
<g id="edge27" class="edge">
<title>tie0_20&#45;&gt;g70</title>
<path fill="none" stroke="#8a8a8a" d="M20.06,-1306C45.84,-1306 121.86,-1306 185,-1306 185,-1306 185,-1306 452.5,-1306 529.73,-1306 612.65,-1341.48 665.46,-1369.08"/>
<polygon fill="#8a8a8a" stroke="#8a8a8a" points="663.85,-1372.18 674.32,-1373.78 667.13,-1366 663.85,-1372.18"/>
</g>
<!-- tie0_21 -->
<g id="node36" class="node">
<title>tie0_21</title>
<g id="a_node36"><a xlink:title="constant 0 from global_gnd [HAL_GND], net &#39;0&#39;">
<ellipse fill="#e8e8e8" stroke="#8a8a8a" cx="10" cy="-200" rx="10" ry="10"/>
<text text-anchor="middle" x="10" y="-197.5" font-family="Helvetica,sans-Serif" font-size="10.00">0</text>
</a>
</g>
</g>
<!-- tie0_21&#45;&gt;g206 -->
<g id="edge28" class="edge">
<title>tie0_21&#45;&gt;g206</title>
<path fill="none" stroke="#8a8a8a" d="M20.18,-200C66.39,-200 275.65,-200 384.41,-200"/>
<polygon fill="#8a8a8a" stroke="#8a8a8a" points="384.61,-203.5 394.61,-200 384.61,-196.5 384.61,-203.5"/>
</g>
<!-- tie0_22 -->
<g id="node37" class="node">
<title>tie0_22</title>
<g id="a_node37"><a xlink:title="constant 0 from global_gnd [HAL_GND], net &#39;0&#39;">
<ellipse fill="#e8e8e8" stroke="#8a8a8a" cx="10" cy="-162" rx="10" ry="10"/>
<text text-anchor="middle" x="10" y="-159.5" font-family="Helvetica,sans-Serif" font-size="10.00">0</text>
</a>
</g>
</g>
<!-- tie0_22&#45;&gt;g206 -->
<g id="edge29" class="edge">
<title>tie0_22&#45;&gt;g206</title>
<path fill="none" stroke="#8a8a8a" d="M20.18,-162.79C66.39,-166.79 275.65,-184.88 384.41,-194.29"/>
<polygon fill="#8a8a8a" stroke="#8a8a8a" points="384.34,-197.79 394.61,-195.17 384.95,-190.82 384.34,-197.79"/>
</g>
<!-- tie0_23 -->
<g id="node38" class="node">
<title>tie0_23</title>
<g id="a_node38"><a xlink:title="constant 0 from global_gnd [HAL_GND], net &#39;0&#39;">
<ellipse fill="#e8e8e8" stroke="#8a8a8a" cx="10" cy="-124" rx="10" ry="10"/>
<text text-anchor="middle" x="10" y="-121.5" font-family="Helvetica,sans-Serif" font-size="10.00">0</text>
</a>
</g>
</g>
<!-- tie0_23&#45;&gt;g206 -->
<g id="edge30" class="edge">
<title>tie0_23&#45;&gt;g206</title>
<path fill="none" stroke="#8a8a8a" d="M20.07,-125.47C61.26,-132.14 234.92,-160.44 377,-186 379.52,-186.45 382.08,-186.92 384.67,-187.39"/>
<polygon fill="#8a8a8a" stroke="#8a8a8a" points="384.27,-190.88 394.74,-189.26 385.54,-184 384.27,-190.88"/>
</g>
<!-- tie0_24 -->
<g id="node39" class="node">
<title>tie0_24</title>
<g id="a_node39"><a xlink:title="constant 0 from global_gnd [HAL_GND], net &#39;0&#39;">
<ellipse fill="#e8e8e8" stroke="#8a8a8a" cx="10" cy="-86" rx="10" ry="10"/>
<text text-anchor="middle" x="10" y="-83.5" font-family="Helvetica,sans-Serif" font-size="10.00">0</text>
</a>
</g>
</g>
<!-- tie0_24&#45;&gt;g206 -->
<g id="edge31" class="edge">
<title>tie0_24&#45;&gt;g206</title>
<path fill="none" stroke="#8a8a8a" d="M19.87,-87.78C60.91,-96.07 236.33,-132.33 377,-174 379.74,-174.81 382.52,-175.66 385.33,-176.55"/>
<polygon fill="#8a8a8a" stroke="#8a8a8a" points="384.32,-179.9 394.92,-179.65 386.48,-173.24 384.32,-179.9"/>
</g>
<!-- tie0_25 -->
<g id="node40" class="node">
<title>tie0_25</title>
<g id="a_node40"><a xlink:title="constant 0 from global_gnd [HAL_GND], net &#39;0&#39;">
<ellipse fill="#e8e8e8" stroke="#8a8a8a" cx="10" cy="-48" rx="10" ry="10"/>
<text text-anchor="middle" x="10" y="-45.5" font-family="Helvetica,sans-Serif" font-size="10.00">0</text>
</a>
</g>
</g>
<!-- tie0_25&#45;&gt;g206 -->
<g id="edge32" class="edge">
<title>tie0_25&#45;&gt;g206</title>
<path fill="none" stroke="#8a8a8a" d="M20.1,-49.74C62.14,-57.95 241.31,-95.09 377,-156 388.45,-161.14 400.33,-167.67 411.13,-174.12"/>
<polygon fill="#8a8a8a" stroke="#8a8a8a" points="409.54,-177.25 419.9,-179.48 413.19,-171.28 409.54,-177.25"/>
</g>
<!-- tie0_26 -->
<g id="node41" class="node">
<title>tie0_26</title>
<g id="a_node41"><a xlink:title="constant 0 from global_gnd [HAL_GND], net &#39;0&#39;">
<ellipse fill="#e8e8e8" stroke="#8a8a8a" cx="10" cy="-10" rx="10" ry="10"/>
<text text-anchor="middle" x="10" y="-7.5" font-family="Helvetica,sans-Serif" font-size="10.00">0</text>
</a>
</g>
</g>
<!-- tie0_26&#45;&gt;g206 -->
<g id="edge33" class="edge">
<title>tie0_26&#45;&gt;g206</title>
<path fill="none" stroke="#8a8a8a" d="M19.94,-11.34C62.73,-18.06 249.9,-51.17 377,-133 393.99,-143.94 410.81,-158.88 424.06,-171.87"/>
<polygon fill="#8a8a8a" stroke="#8a8a8a" points="421.88,-174.65 431.42,-179.26 426.84,-169.71 421.88,-174.65"/>
</g>
<!-- tie1_27 -->
<g id="node42" class="node">
<title>tie1_27</title>
<g id="a_node42"><a xlink:title="constant 1 from global_vcc [HAL_VCC], net &#39;1&#39;">
<ellipse fill="#fff2cc" stroke="#bf9000" cx="10" cy="-1026" rx="10" ry="10"/>
<text text-anchor="middle" x="10" y="-1023.5" font-family="Helvetica,sans-Serif" font-size="10.00">1</text>
</a>
</g>
</g>
<!-- tie1_27&#45;&gt;g3 -->
<g id="edge37" class="edge">
<title>tie1_27&#45;&gt;g3</title>
<path fill="none" stroke="#8a8a8a" d="M20.23,-1027.91C49.59,-1034 143.51,-1053.58 221,-1071 223.61,-1071.59 226.3,-1072.2 229.01,-1072.82"/>
<polygon fill="#8a8a8a" stroke="#8a8a8a" points="228.3,-1076.25 238.83,-1075.09 229.87,-1069.43 228.3,-1076.25"/>
</g>
<!-- tie1_28 -->
<g id="node43" class="node">
<title>tie1_28</title>
<g id="a_node43"><a xlink:title="constant 1 from global_vcc [HAL_VCC], net &#39;1&#39;">
<ellipse fill="#fff2cc" stroke="#bf9000" cx="10" cy="-988" rx="10" ry="10"/>
<text text-anchor="middle" x="10" y="-985.5" font-family="Helvetica,sans-Serif" font-size="10.00">1</text>
</a>
</g>
</g>
<!-- tie1_28&#45;&gt;g3 -->
<g id="edge38" class="edge">
<title>tie1_28&#45;&gt;g3</title>
<path fill="none" stroke="#8a8a8a" d="M20.07,-990.01C49.74,-996.75 146.29,-1020 221,-1053 224.2,-1054.41 227.45,-1055.98 230.68,-1057.64"/>
<polygon fill="#8a8a8a" stroke="#8a8a8a" points="229.21,-1060.82 239.67,-1062.48 232.53,-1054.66 229.21,-1060.82"/>
</g>
<!-- tie1_29 -->
<g id="node44" class="node">
<title>tie1_29</title>
<g id="a_node44"><a xlink:title="constant 1 from global_vcc [HAL_VCC], net &#39;1&#39;">
<ellipse fill="#fff2cc" stroke="#bf9000" cx="10" cy="-950" rx="10" ry="10"/>
<text text-anchor="middle" x="10" y="-947.5" font-family="Helvetica,sans-Serif" font-size="10.00">1</text>
</a>
</g>
</g>
<!-- tie1_29&#45;&gt;g3 -->
<g id="edge40" class="edge">
<title>tie1_29&#45;&gt;g3</title>
<path fill="none" stroke="#8a8a8a" d="M20.23,-951.32C51.21,-956.12 153.34,-974.95 221,-1023 232.9,-1031.45 243.75,-1043.29 252.35,-1054.22"/>
<polygon fill="#8a8a8a" stroke="#8a8a8a" points="249.65,-1056.46 258.47,-1062.33 255.24,-1052.24 249.65,-1056.46"/>
</g>
<!-- tie1_30 -->
<g id="node45" class="node">
<title>tie1_30</title>
<g id="a_node45"><a xlink:title="constant 1 from global_vcc [HAL_VCC], net &#39;1&#39;">
<ellipse fill="#fff2cc" stroke="#bf9000" cx="10" cy="-670" rx="10" ry="10"/>
<text text-anchor="middle" x="10" y="-667.5" font-family="Helvetica,sans-Serif" font-size="10.00">1</text>
</a>
</g>
</g>
<!-- tie1_30&#45;&gt;g2 -->
<g id="edge42" class="edge">
<title>tie1_30&#45;&gt;g2</title>
<path fill="none" stroke="#8a8a8a" d="M20.23,-671.91C49.59,-678 143.51,-697.58 221,-715 223.61,-715.59 226.3,-716.2 229.01,-716.82"/>
<polygon fill="#8a8a8a" stroke="#8a8a8a" points="228.3,-720.25 238.83,-719.09 229.87,-713.43 228.3,-720.25"/>
</g>
<!-- tie1_31 -->
<g id="node46" class="node">
<title>tie1_31</title>
<g id="a_node46"><a xlink:title="constant 1 from global_vcc [HAL_VCC], net &#39;1&#39;">
<ellipse fill="#fff2cc" stroke="#bf9000" cx="10" cy="-632" rx="10" ry="10"/>
<text text-anchor="middle" x="10" y="-629.5" font-family="Helvetica,sans-Serif" font-size="10.00">1</text>
</a>
</g>
</g>
<!-- tie1_31&#45;&gt;g2 -->
<g id="edge43" class="edge">
<title>tie1_31&#45;&gt;g2</title>
<path fill="none" stroke="#8a8a8a" d="M20.07,-634.01C49.74,-640.75 146.29,-664 221,-697 224.2,-698.41 227.45,-699.98 230.68,-701.64"/>
<polygon fill="#8a8a8a" stroke="#8a8a8a" points="229.21,-704.82 239.67,-706.48 232.53,-698.66 229.21,-704.82"/>
</g>
<!-- tie1_32 -->
<g id="node47" class="node">
<title>tie1_32</title>
<g id="a_node47"><a xlink:title="constant 1 from global_vcc [HAL_VCC], net &#39;1&#39;">
<ellipse fill="#fff2cc" stroke="#bf9000" cx="10" cy="-594" rx="10" ry="10"/>
<text text-anchor="middle" x="10" y="-591.5" font-family="Helvetica,sans-Serif" font-size="10.00">1</text>
</a>
</g>
</g>
<!-- tie1_32&#45;&gt;g2 -->
<g id="edge45" class="edge">
<title>tie1_32&#45;&gt;g2</title>
<path fill="none" stroke="#8a8a8a" d="M20.23,-595.32C51.21,-600.12 153.34,-618.95 221,-667 232.9,-675.45 243.75,-687.29 252.35,-698.22"/>
<polygon fill="#8a8a8a" stroke="#8a8a8a" points="249.65,-700.46 258.47,-706.33 255.24,-696.24 249.65,-700.46"/>
</g>
<!-- tie1_33 -->
<g id="node48" class="node">
<title>tie1_33</title>
<g id="a_node48"><a xlink:title="constant 1 from global_vcc [HAL_VCC], net &#39;1&#39;">
<ellipse fill="#fff2cc" stroke="#bf9000" cx="10" cy="-314" rx="10" ry="10"/>
<text text-anchor="middle" x="10" y="-311.5" font-family="Helvetica,sans-Serif" font-size="10.00">1</text>
</a>
</g>
</g>
<!-- tie1_33&#45;&gt;g4 -->
<g id="edge47" class="edge">
<title>tie1_33&#45;&gt;g4</title>
<path fill="none" stroke="#8a8a8a" d="M20.23,-315.91C49.59,-322 143.51,-341.58 221,-359 223.61,-359.59 226.3,-360.2 229.01,-360.82"/>
<polygon fill="#8a8a8a" stroke="#8a8a8a" points="228.3,-364.25 238.83,-363.09 229.87,-357.43 228.3,-364.25"/>
</g>
<!-- tie1_34 -->
<g id="node49" class="node">
<title>tie1_34</title>
<g id="a_node49"><a xlink:title="constant 1 from global_vcc [HAL_VCC], net &#39;1&#39;">
<ellipse fill="#fff2cc" stroke="#bf9000" cx="10" cy="-276" rx="10" ry="10"/>
<text text-anchor="middle" x="10" y="-273.5" font-family="Helvetica,sans-Serif" font-size="10.00">1</text>
</a>
</g>
</g>
<!-- tie1_34&#45;&gt;g4 -->
<g id="edge48" class="edge">
<title>tie1_34&#45;&gt;g4</title>
<path fill="none" stroke="#8a8a8a" d="M20.07,-278.01C49.74,-284.75 146.29,-308 221,-341 224.2,-342.41 227.45,-343.98 230.68,-345.64"/>
<polygon fill="#8a8a8a" stroke="#8a8a8a" points="229.21,-348.82 239.67,-350.48 232.53,-342.66 229.21,-348.82"/>
</g>
<!-- tie1_35 -->
<g id="node50" class="node">
<title>tie1_35</title>
<g id="a_node50"><a xlink:title="constant 1 from global_vcc [HAL_VCC], net &#39;1&#39;">
<ellipse fill="#fff2cc" stroke="#bf9000" cx="10" cy="-238" rx="10" ry="10"/>
<text text-anchor="middle" x="10" y="-235.5" font-family="Helvetica,sans-Serif" font-size="10.00">1</text>
</a>
</g>
</g>
<!-- tie1_35&#45;&gt;g4 -->
<g id="edge50" class="edge">
<title>tie1_35&#45;&gt;g4</title>
<path fill="none" stroke="#8a8a8a" d="M20.23,-239.32C51.21,-244.12 153.34,-262.95 221,-311 232.9,-319.45 243.75,-331.29 252.35,-342.22"/>
<polygon fill="#8a8a8a" stroke="#8a8a8a" points="249.65,-344.46 258.47,-350.33 255.24,-340.24 249.65,-344.46"/>
</g>
<!-- tie1_36 -->
<g id="node51" class="node">
<title>tie1_36</title>
<g id="a_node51"><a xlink:title="constant 1 from global_vcc [HAL_VCC], net &#39;1&#39;">
<ellipse fill="#fff2cc" stroke="#bf9000" cx="10" cy="-1624" rx="10" ry="10"/>
<text text-anchor="middle" x="10" y="-1621.5" font-family="Helvetica,sans-Serif" font-size="10.00">1</text>
</a>
</g>
</g>
<!-- tie1_36&#45;&gt;g1 -->
<g id="edge51" class="edge">
<title>tie1_36&#45;&gt;g1</title>
<path fill="none" stroke="#8a8a8a" d="M20.06,-1624C45.84,-1624 121.86,-1624 185,-1624 185,-1624 185,-1624 722.49,-1624 785.81,-1624 858.81,-1631.6 903.94,-1637.18"/>
<polygon fill="#8a8a8a" stroke="#8a8a8a" points="903.6,-1640.67 913.96,-1638.45 904.47,-1633.72 903.6,-1640.67"/>
</g>
<!-- tie1_37 -->
<g id="node52" class="node">
<title>tie1_37</title>
<g id="a_node52"><a xlink:title="constant 1 from global_vcc [HAL_VCC], net &#39;1&#39;">
<ellipse fill="#fff2cc" stroke="#bf9000" cx="10" cy="-1586" rx="10" ry="10"/>
<text text-anchor="middle" x="10" y="-1583.5" font-family="Helvetica,sans-Serif" font-size="10.00">1</text>
</a>
</g>
</g>
<!-- tie1_37&#45;&gt;g1 -->
<g id="edge52" class="edge">
<title>tie1_37&#45;&gt;g1</title>
<path fill="none" stroke="#8a8a8a" d="M20.06,-1586C45.84,-1586 121.86,-1586 185,-1586 185,-1586 185,-1586 722.49,-1586 787.48,-1586 859.9,-1608.72 904.45,-1625.48"/>
<polygon fill="#8a8a8a" stroke="#8a8a8a" points="903.2,-1628.75 913.79,-1629.06 905.71,-1622.21 903.2,-1628.75"/>
</g>
<!-- tie1_38 -->
<g id="node53" class="node">
<title>tie1_38</title>
<g id="a_node53"><a xlink:title="constant 1 from global_vcc [HAL_VCC], net &#39;1&#39;">
<ellipse fill="#fff2cc" stroke="#bf9000" cx="10" cy="-1548" rx="10" ry="10"/>
<text text-anchor="middle" x="10" y="-1545.5" font-family="Helvetica,sans-Serif" font-size="10.00">1</text>
</a>
</g>
</g>
<!-- tie1_38&#45;&gt;g1 -->
<g id="edge54" class="edge">
<title>tie1_38&#45;&gt;g1</title>
<path fill="none" stroke="#8a8a8a" d="M20.06,-1548C45.84,-1548 121.86,-1548 185,-1548 185,-1548 185,-1548 722.49,-1548 802.73,-1548 825.75,-1559.17 895.97,-1598 904.47,-1602.7 912.77,-1609.02 920.13,-1615.45"/>
<polygon fill="#8a8a8a" stroke="#8a8a8a" points="917.96,-1618.21 927.7,-1622.38 922.69,-1613.04 917.96,-1618.21"/>
</g>
<!-- legend_comb -->
<g id="node54" class="node">
<title>legend_comb</title>
<path fill="#f4f4f4" stroke="#555555" d="M113.5,-2022C113.5,-2022 57.5,-2022 57.5,-2022 51.5,-2022 45.5,-2016 45.5,-2010 45.5,-2010 45.5,-1998 45.5,-1998 45.5,-1992 51.5,-1986 57.5,-1986 57.5,-1986 113.5,-1986 113.5,-1986 119.5,-1986 125.5,-1992 125.5,-1998 125.5,-1998 125.5,-2010 125.5,-2010 125.5,-2016 119.5,-2022 113.5,-2022"/>
<text text-anchor="middle" x="85.5" y="-2006.8" font-family="Helvetica,sans-Serif" font-size="9.00">combinational</text>
<text text-anchor="middle" x="85.5" y="-1996.8" font-family="Helvetica,sans-Serif" font-size="9.00">gate</text>
</g>
<!-- legend_seq -->
<g id="node55" class="node">
<title>legend_seq</title>
<polygon fill="#dbe9f6" stroke="#2a5d8f" stroke-width="2" points="114,-1981 57,-1981 57,-1945 114,-1945 114,-1981"/>
<text text-anchor="middle" x="85.5" y="-1965.8" font-family="Helvetica,sans-Serif" font-size="9.00">flip&#45;flop /</text>
<text text-anchor="middle" x="85.5" y="-1955.8" font-family="Helvetica,sans-Serif" font-size="9.00">latch</text>
</g>
<!-- legend_io -->
<g id="node56" class="node">
<title>legend_io</title>
<polygon fill="#d6ecff" stroke="#2a5d8f" points="127.99,-1914.54 127.99,-1929.46 103.1,-1940 67.9,-1940 43.01,-1929.46 43.01,-1914.54 67.9,-1904 103.1,-1904 127.99,-1914.54"/>
<text text-anchor="middle" x="85.5" y="-1919.8" font-family="Helvetica,sans-Serif" font-size="9.00">primary I/O</text>
</g>
<!-- legend_tie0 -->
<g id="node57" class="node">
<title>legend_tie0</title>
<ellipse fill="#e8e8e8" stroke="#8a8a8a" cx="85.5" cy="-1889" rx="10" ry="10"/>
<text text-anchor="middle" x="85.5" y="-1886.5" font-family="Helvetica,sans-Serif" font-size="10.00">0</text>
</g>
<!-- legend_tie1 -->
<g id="node58" class="node">
<title>legend_tie1</title>
<ellipse fill="#fff2cc" stroke="#bf9000" cx="85.5" cy="-1864" rx="10" ry="10"/>
<text text-anchor="middle" x="85.5" y="-1861.5" font-family="Helvetica,sans-Serif" font-size="10.00">1</text>
</g>
<!-- legend_tie_note -->
<g id="node59" class="node">
<title>legend_tie_note</title>
<text text-anchor="middle" x="85.5" y="-1833.8" font-family="Helvetica,sans-Serif" font-size="9.00" fill="#555555">constant tie&#45;off,</text>
<text text-anchor="middle" x="85.5" y="-1823.8" font-family="Helvetica,sans-Serif" font-size="9.00" fill="#555555">one stub per sink</text>
</g>
<!-- legend_net_a -->
<g id="node60" class="node">
<title>legend_net_a</title>
<ellipse fill="#777777" stroke="#777777" cx="85.5" cy="-1806" rx="2.16" ry="2.16"/>
</g>
<!-- legend_net_b -->
<g id="node61" class="node">
<title>legend_net_b</title>
<ellipse fill="#777777" stroke="#777777" cx="273" cy="-1822" rx="2.16" ry="2.16"/>
</g>
<!-- legend_net_a&#45;&gt;legend_net_b -->
<g id="edge1" class="edge">
<title>legend_net_a&#45;&gt;legend_net_b</title>
<path fill="none" stroke="#777777" d="M87.68,-1806.1C100.96,-1807.25 222.01,-1817.69 260.38,-1821"/>
<polygon fill="#777777" stroke="#777777" points="260.28,-1824.5 270.54,-1821.87 260.88,-1817.53 260.28,-1824.5"/>
<text text-anchor="middle" x="186" y="-1819.8" font-family="Helvetica,sans-Serif" font-size="9.00">net</text>
</g>
</g>
</svg>
